<svg xmlns="http://www.w3.org/2000/svg" xmlns:xlink="http://www.w3.org/1999/xlink" xmlns:lucid="lucid" width="1340" height="982.5"><g transform="translate(0 -67.5)" lucid:page-tab-id="0_0"><path d="M900 731h420v205H900z" stroke="#000" stroke-width="2" fill="#fff"/><path d="M900 790.2h420" stroke="#000" stroke-width="2" fill="none"/><use xlink:href="#a" transform="matrix(1,0,0,1,908,739) translate(143.575 14.799999999999999)"/><use xlink:href="#b" transform="matrix(1,0,0,1,908,739) translate(164.525 36.4)"/><use xlink:href="#c" transform="matrix(1,0,0,1,912,798.2) translate(0 14.600000000000003)"/><use xlink:href="#d" transform="matrix(1,0,0,1,912,798.2) translate(10 14.600000000000003)"/><use xlink:href="#e" transform="matrix(1,0,0,1,912,798.2) translate(25.5 14.600000000000003)"/><use xlink:href="#f" transform="matrix(1,0,0,1,912,798.2) translate(127.35000000000001 14.600000000000003)"/><use xlink:href="#g" transform="matrix(1,0,0,1,912,798.2) translate(151.3 14.600000000000003)"/><use xlink:href="#h" transform="matrix(1,0,0,1,912,798.2) translate(166.8 14.600000000000003)"/><use xlink:href="#c" transform="matrix(1,0,0,1,912,798.2) translate(0 36.2)"/><use xlink:href="#d" transform="matrix(1,0,0,1,912,798.2) translate(10 36.2)"/><use xlink:href="#i" transform="matrix(1,0,0,1,912,798.2) translate(25.5 36.2)"/><use xlink:href="#j" transform="matrix(1,0,0,1,912,798.2) translate(152.35000000000002 36.2)"/><use xlink:href="#k" transform="matrix(1,0,0,1,912,798.2) translate(204.25000000000003 36.2)"/><use xlink:href="#c" transform="matrix(1,0,0,1,912,798.2) translate(0 57.800000000000004)"/><use xlink:href="#d" transform="matrix(1,0,0,1,912,798.2) translate(10 57.800000000000004)"/><use xlink:href="#l" transform="matrix(1,0,0,1,912,798.2) translate(25.5 57.800000000000004)"/><use xlink:href="#m" transform="matrix(1,0,0,1,912,798.2) translate(97.5 57.800000000000004)"/><use xlink:href="#c" transform="matrix(1,0,0,1,912,798.2) translate(0 79.40000000000002)"/><use xlink:href="#d" transform="matrix(1,0,0,1,912,798.2) translate(10 79.40000000000002)"/><use xlink:href="#n" transform="matrix(1,0,0,1,912,798.2) translate(25.5 79.40000000000002)"/><use xlink:href="#m" transform="matrix(1,0,0,1,912,798.2) translate(111.5 79.40000000000002)"/><use xlink:href="#c" transform="matrix(1,0,0,1,912,798.2) translate(0 101.00000000000001)"/><use xlink:href="#d" transform="matrix(1,0,0,1,912,798.2) translate(10 101.00000000000001)"/><use xlink:href="#o" transform="matrix(1,0,0,1,912,798.2) translate(25.5 101.00000000000001)"/><use xlink:href="#m" transform="matrix(1,0,0,1,912,798.2) translate(110.7 101.00000000000001)"/><use xlink:href="#p" transform="matrix(1,0,0,1,912,798.2) translate(0 122.60000000000001)"/><path d="M340 680h380v350H340z" stroke="#000" stroke-width="2" fill="#fff"/><path d="M340 717.6h380M340 841.5h380" stroke="#000" stroke-width="2" fill="none"/><use xlink:href="#q" transform="matrix(1,0,0,1,348,688) translate(148.05 14.6)"/><use xlink:href="#r" transform="matrix(1,0,0,1,352,725.6) translate(0 25.19999999999999)"/><use xlink:href="#s" transform="matrix(1,0,0,1,352,725.6) translate(10.95 25.19999999999999)"/><use xlink:href="#r" transform="matrix(1,0,0,1,352,725.6) translate(0 46.79999999999999)"/><use xlink:href="#t" transform="matrix(1,0,0,1,352,725.6) translate(10.95 46.79999999999999)"/><use xlink:href="#u" transform="matrix(1,0,0,1,352,725.6) translate(103.80000000000001 46.79999999999999)"/><use xlink:href="#r" transform="matrix(1,0,0,1,352,725.6) translate(0 68.39999999999999)"/><use xlink:href="#v" transform="matrix(1,0,0,1,352,725.6) translate(10.95 68.39999999999999)"/><use xlink:href="#w" transform="matrix(1,0,0,1,352,725.6) translate(122.15 68.39999999999999)"/><use xlink:href="#r" transform="matrix(1,0,0,1,352,725.6) translate(0 90)"/><use xlink:href="#x" transform="matrix(1,0,0,1,352,725.6) translate(10.95 90)"/><use xlink:href="#y" transform="matrix(1,0,0,1,352,725.6) translate(136.15 90)"/><use xlink:href="#z" transform="matrix(1,0,0,1,352,849.5) translate(0 25.300000000000004)"/><use xlink:href="#A" transform="matrix(1,0,0,1,352,849.5) translate(15.5 25.300000000000004)"/><use xlink:href="#z" transform="matrix(1,0,0,1,352,849.5) translate(0 46.900000000000006)"/><use xlink:href="#B" transform="matrix(1,0,0,1,352,849.5) translate(15.5 46.900000000000006)"/><use xlink:href="#m" transform="matrix(1,0,0,1,352,849.5) translate(188.49999999999997 46.900000000000006)"/><use xlink:href="#z" transform="matrix(1,0,0,1,352,849.5) translate(0 68.50000000000001)"/><use xlink:href="#C" transform="matrix(1,0,0,1,352,849.5) translate(15.5 68.50000000000001)"/><use xlink:href="#D" transform="matrix(1,0,0,1,352,849.5) translate(80.35000000000001 68.50000000000001)"/><use xlink:href="#z" transform="matrix(1,0,0,1,352,849.5) translate(0 90.10000000000002)"/><use xlink:href="#E" transform="matrix(1,0,0,1,352,849.5) translate(15.5 90.10000000000002)"/><use xlink:href="#m" transform="matrix(1,0,0,1,352,849.5) translate(79.35000000000001 90.10000000000002)"/><use xlink:href="#z" transform="matrix(1,0,0,1,352,849.5) translate(0 111.70000000000002)"/><use xlink:href="#F" transform="matrix(1,0,0,1,352,849.5) translate(15.5 111.70000000000002)"/><use xlink:href="#w" transform="matrix(1,0,0,1,352,849.5) translate(155.65 111.70000000000002)"/><use xlink:href="#z" transform="matrix(1,0,0,1,352,849.5) translate(0 133.3)"/><use xlink:href="#G" transform="matrix(1,0,0,1,352,849.5) translate(15.5 133.3)"/><use xlink:href="#w" transform="matrix(1,0,0,1,352,849.5) translate(171.35 133.3)"/><use xlink:href="#z" transform="matrix(1,0,0,1,352,849.5) translate(0 154.9)"/><use xlink:href="#H" transform="matrix(1,0,0,1,352,849.5) translate(15.5 154.9)"/><path d="M880.5 833.5H830V855H722" stroke="#000" stroke-width="2" fill="none"/><path d="M895.76 833.5l-14.26 4.64v-9.28z" stroke="#000" stroke-width="2"/><path d="M722.03 856H721v-2h1.03z"/><g><use xlink:href="#I" transform="matrix(1,0,0,1,742.4572228717906,859) translate(0 14.4)"/></g><path d="M20 680h160v120H20z" stroke="#000" stroke-width="2" fill="#fff"/><g><use xlink:href="#a" transform="matrix(1,0,0,1,28,688) translate(13.574999999999996 44.8)"/><use xlink:href="#J" transform="matrix(1,0,0,1,28,688) translate(22.525 66.4)"/></g><path d="M224 860h116v20H224z" stroke="#000" stroke-opacity="0" stroke-width="2" fill="#fff" fill-opacity="0"/><g><use xlink:href="#I" transform="matrix(1,0,0,1,229.0000000000001,865) translate(6.574999999999996 14.4)"/></g><path d="M80 87.5h500v156H80z" stroke="#000" stroke-width="2" fill="#fff"/><path d="M80 125.1h500M80 162.7h500" stroke="#000" stroke-width="2" fill="none"/><g><use xlink:href="#K" transform="matrix(1,0,0,1,88,95.5) translate(188.3 14.6)"/></g><g><use xlink:href="#z" transform="matrix(1,0,0,1,92,170.7) translate(0 14.500000000000002)"/><use xlink:href="#L" transform="matrix(1,0,0,1,92,170.7) translate(15.5 14.500000000000002)"/><use xlink:href="#M" transform="matrix(1,0,0,1,92,170.7) translate(199.99999999999997 14.500000000000002)"/><use xlink:href="#N" transform="matrix(1,0,0,1,92,170.7) translate(280.79999999999995 14.500000000000002)"/><use xlink:href="#O" transform="matrix(1,0,0,1,92,170.7) translate(0 36.1)"/><use xlink:href="#P" transform="matrix(1,0,0,1,92,170.7) translate(101.7 36.1)"/><use xlink:href="#m" transform="matrix(1,0,0,1,92,170.7) translate(187.55 36.1)"/><use xlink:href="#p" transform="matrix(1,0,0,1,92,170.7) translate(0 57.7)"/></g><path d="M80 261.75h500v155H80z" stroke="#000" stroke-width="2" fill="#fff"/><path d="M80 299.35h500m-500 48.1h500" stroke="#000" stroke-width="2" fill="none"/><g><use xlink:href="#Q" transform="matrix(1,0,0,1,88,269.75) translate(182.575 14.6)"/></g><g><use xlink:href="#z" transform="matrix(1,0,0,1,92,355.45000000000005) translate(0 19.799999999999997)"/><use xlink:href="#R" transform="matrix(1,0,0,1,92,355.45000000000005) translate(15.5 19.799999999999997)"/><use xlink:href="#S" transform="matrix(1,0,0,1,92,355.45000000000005) translate(198.1 19.799999999999997)"/><use xlink:href="#T" transform="matrix(1,0,0,1,92,355.45000000000005) translate(0 41.4)"/><use xlink:href="#O" transform="matrix(1,0,0,1,92,355.45000000000005) translate(155.3 41.4)"/><use xlink:href="#U" transform="matrix(1,0,0,1,92,355.45000000000005) translate(257 41.4)"/></g><path d="M338 855h-78V740h-60.5" stroke="#000" stroke-width="2" fill="none"/><path d="M339 856h-1.03v-2H339z"/><path d="M184.24 740l14.26-4.64v9.28z" stroke="#000" stroke-width="2"/><path d="M900 360h360v328H900z" stroke="#000" stroke-width="2" fill="#fff"/><path d="M900 397.6h360m-360 80.7h360" stroke="#000" stroke-width="2" fill="none"/><g><use xlink:href="#V" transform="matrix(1,0,0,1,908,368) translate(152.55 14.6)"/></g><g><use xlink:href="#W" transform="matrix(1,0,0,1,912,405.6) translate(0 25.299999999999997)"/><use xlink:href="#X" transform="matrix(1,0,0,1,912,405.6) translate(165.79999999999998 25.299999999999997)"/><use xlink:href="#U" transform="matrix(1,0,0,1,912,405.6) translate(0 46.9)"/></g><g><use xlink:href="#z" transform="matrix(1,0,0,1,912,486.3) translate(0 25.633333333333333)"/><use xlink:href="#Y" transform="matrix(1,0,0,1,912,486.3) translate(15.5 25.633333333333333)"/><use xlink:href="#Z" transform="matrix(1,0,0,1,912,486.3) translate(112.25000000000001 25.633333333333333)"/><use xlink:href="#z" transform="matrix(1,0,0,1,912,486.3) translate(0 47.233333333333334)"/><use xlink:href="#aa" transform="matrix(1,0,0,1,912,486.3) translate(15.5 47.233333333333334)"/><use xlink:href="#ab" transform="matrix(1,0,0,1,912,486.3) translate(141.25 47.233333333333334)"/><use xlink:href="#z" transform="matrix(1,0,0,1,912,486.3) translate(0 68.83333333333334)"/><use xlink:href="#ac" transform="matrix(1,0,0,1,912,486.3) translate(15.5 68.83333333333334)"/><use xlink:href="#ab" transform="matrix(1,0,0,1,912,486.3) translate(144.35000000000002 68.83333333333334)"/><use xlink:href="#z" transform="matrix(1,0,0,1,912,486.3) translate(0 90.43333333333335)"/><use xlink:href="#ad" transform="matrix(1,0,0,1,912,486.3) translate(15.5 90.43333333333335)"/><use xlink:href="#ab" transform="matrix(1,0,0,1,912,486.3) translate(158.35 90.43333333333335)"/><use xlink:href="#z" transform="matrix(1,0,0,1,912,486.3) translate(0 112.03333333333335)"/><use xlink:href="#ae" transform="matrix(1,0,0,1,912,486.3) translate(15.5 112.03333333333335)"/><use xlink:href="#m" transform="matrix(1,0,0,1,912,486.3) translate(195.14999999999998 112.03333333333335)"/><use xlink:href="#z" transform="matrix(1,0,0,1,912,486.3) translate(0 133.63333333333333)"/><use xlink:href="#af" transform="matrix(1,0,0,1,912,486.3) translate(15.5 133.63333333333333)"/><use xlink:href="#m" transform="matrix(1,0,0,1,912,486.3) translate(194.34999999999997 133.63333333333333)"/><use xlink:href="#ag" transform="matrix(1,0,0,1,912,486.3) translate(0 155.23333333333332)"/><use xlink:href="#ah" transform="matrix(1,0,0,1,912,486.3) translate(15.5 155.23333333333332)"/><use xlink:href="#ai" transform="matrix(1,0,0,1,912,486.3) translate(0 176.65555555555557)"/><use xlink:href="#aj" transform="matrix(1,0,0,1,912,486.3) translate(100.59259259259261 176.65555555555557)"/><use xlink:href="#ak" transform="matrix(1,0,0,1,912,486.3) translate(185.38271604938274 176.65555555555557)"/></g><path d="M122 583v47.5h-22v30" stroke="#000" stroke-width="2" fill="none"/><path d="M123 583.03h-2V582h2z"/><path d="M100 675.76l-4.64-14.26h9.28z" stroke="#000" stroke-width="2"/><path d="M120 620.5h116v20H120z" stroke="#000" stroke-opacity="0" stroke-width="2" fill="#fff" fill-opacity="0"/><g><use xlink:href="#I" transform="matrix(1,0,0,1,125,625.5) translate(6.574999999999996 14.4)"/></g><path d="M720 480h116v20H720z" stroke="#000" stroke-opacity="0" stroke-width="2" fill="#fff" fill-opacity="0"/><g><use xlink:href="#al" transform="matrix(1,0,0,1,725,485) translate(32.525 14.4)"/></g><path d="M898 524H740V165.5H599.5" stroke="#000" stroke-width="2" fill="none"/><path d="M899 525h-1.03v-2H899z"/><path d="M584.24 165.5l14.26-4.64v9.28z" stroke="#000" stroke-width="2"/><path d="M898 524H740V339.25H599.5" stroke="#000" stroke-width="2" fill="none"/><path d="M899 525h-1.03v-2H899z"/><path d="M584.24 339.25l14.26-4.64v9.3z" stroke="#000" stroke-width="2"/><path d="M20 459h204v122H20z" stroke="#000" stroke-width="2" fill="#fff"/><path d="M20 518.2h204" stroke="#000" stroke-width="2" fill="none"/><g><use xlink:href="#am" transform="matrix(1,0,0,1,28,467.0000000000001) translate(18.625 14.799999999999999)"/><use xlink:href="#an" transform="matrix(1,0,0,1,28,467.0000000000001) translate(48.449999999999996 36.4)"/></g><g><use xlink:href="#ao" transform="matrix(1,0,0,1,32,526.2000000000002) translate(0 16.299999999999997)"/><use xlink:href="#ap" transform="matrix(1,0,0,1,32,526.2000000000002) translate(0 37.9)"/></g><defs><path d="M15-91v-56l181-69v40L49-119l147 57v40" id="aq"/><path d="M24 0v-248h52V0H24" id="ar"/><path d="M135-194c87-1 58 113 63 194h-50c-7-57 23-157-34-157-59 0-34 97-39 157H25l-1-190h47c2 12-1 28 3 38 12-26 28-41 61-42" id="as"/><path d="M115-3C79 11 28 4 28-45v-112H4v-33h27l15-45h31v45h36v33H77v99c-1 23 16 31 38 25v30" id="at"/><path d="M185-48c-13 30-37 53-82 52C43 2 14-33 14-96s30-98 90-98c62 0 83 45 84 108H66c0 31 8 55 39 56 18 0 30-7 34-22zm-45-69c5-46-57-63-70-21-2 6-4 13-4 21h74" id="au"/><path d="M135-150c-39-12-60 13-60 57V0H25l-1-190h47c2 13-1 29 3 40 6-28 27-53 61-41v41" id="av"/><path d="M121-226c-27-7-43 5-38 36h38v33H83V0H34v-157H6v-33h28c-9-59 32-81 87-68v32" id="aw"/><path d="M133-34C117-15 103 5 69 4 32 3 11-16 11-54c-1-60 55-63 116-61 1-26-3-47-28-47-18 1-26 9-28 27l-52-2c7-38 36-58 82-57s74 22 75 68l1 82c-1 14 12 18 25 15v27c-30 8-71 5-69-32zm-48 3c29 0 43-24 42-57-32 0-66-3-65 30 0 17 8 27 23 27" id="ax"/><path d="M190-63c-7 42-38 67-86 67-59 0-84-38-90-98-12-110 154-137 174-36l-49 2c-2-19-15-32-35-32-30 0-35 28-38 64-6 74 65 87 74 30" id="ay"/><path d="M15-22v-40l146-57-146-57v-40l181 69v56" id="az"/><g id="a"><use transform="matrix(0.05,0,0,0.05,0,0)" xlink:href="#aq"/><use transform="matrix(0.05,0,0,0.05,10.5,0)" xlink:href="#aq"/><use transform="matrix(0.05,0,0,0.05,21,0)" xlink:href="#ar"/><use transform="matrix(0.05,0,0,0.05,26,0)" xlink:href="#as"/><use transform="matrix(0.05,0,0,0.05,36.95,0)" xlink:href="#at"/><use transform="matrix(0.05,0,0,0.05,42.900000000000006,0)" xlink:href="#au"/><use transform="matrix(0.05,0,0,0.05,52.900000000000006,0)" xlink:href="#av"/><use transform="matrix(0.05,0,0,0.05,59.900000000000006,0)" xlink:href="#aw"/><use transform="matrix(0.05,0,0,0.05,65.85000000000001,0)" xlink:href="#ax"/><use transform="matrix(0.05,0,0,0.05,75.85000000000001,0)" xlink:href="#ay"/><use transform="matrix(0.05,0,0,0.05,85.85000000000001,0)" xlink:href="#au"/><use transform="matrix(0.05,0,0,0.05,95.85000000000001,0)" xlink:href="#az"/><use transform="matrix(0.05,0,0,0.05,106.35000000000001,0)" xlink:href="#az"/></g><path d="M24-248c93 1 206-16 204 79-1 75-69 88-152 82V0H24v-248zm52 121c47 0 100 7 100-41 0-47-54-39-100-39v80" id="aA"/><path d="M147 0L96-86 75-71V0H25v-261h50v150l67-79h53l-66 74L201 0h-54" id="aB"/><path d="M135-194c52 0 70 43 70 98 0 56-19 99-73 100-30 1-46-15-58-35L72 0H24l1-261h50v104c11-23 29-37 60-37zM114-30c31 0 40-27 40-66 0-37-7-63-39-63s-41 28-41 65c0 36 8 64 40 64" id="aC"/><path d="M25 0v-261h50V0H25" id="aD"/><g id="b"><use transform="matrix(0.05,0,0,0.05,0,0)" xlink:href="#aA"/><use transform="matrix(0.05,0,0,0.05,12,0)" xlink:href="#ax"/><use transform="matrix(0.05,0,0,0.05,22,0)" xlink:href="#av"/><use transform="matrix(0.05,0,0,0.05,29,0)" xlink:href="#aB"/><use transform="matrix(0.05,0,0,0.05,39,0)" xlink:href="#ax"/><use transform="matrix(0.05,0,0,0.05,49,0)" xlink:href="#aC"/><use transform="matrix(0.05,0,0,0.05,59.95,0)" xlink:href="#aD"/><use transform="matrix(0.05,0,0,0.05,64.95,0)" xlink:href="#au"/></g><path d="M16-127c37-31 93-2 135 6 18-1 32-8 43-16v26c-50 42-130-35-178 9v-25" id="aE"/><use transform="matrix(0.05,0,0,0.05,0,0)" xlink:href="#aE" id="d"/><path d="M30-248c87 1 191-15 191 75 0 78-77 80-158 76V0H30v-248zm33 125c57 0 124 11 124-50 0-59-68-47-124-48v98" id="aF"/><path d="M141-36C126-15 110 5 73 4 37 3 15-17 15-53c-1-64 63-63 125-63 3-35-9-54-41-54-24 1-41 7-42 31l-33-3c5-37 33-52 76-52 45 0 72 20 72 64v82c-1 20 7 32 28 27v20c-31 9-61-2-59-35zM48-53c0 20 12 33 32 33 41-3 63-29 60-74-43 2-92-5-92 41" id="aG"/><path d="M114-163C36-179 61-72 57 0H25l-1-190h30c1 12-1 29 2 39 6-27 23-49 58-41v29" id="aH"/><path d="M143 0L79-87 56-68V0H24v-261h32v163l83-92h37l-77 82L181 0h-38" id="aI"/><path d="M24-231v-30h32v30H24zM24 0v-190h32V0H24" id="aJ"/><path d="M117-194c89-4 53 116 60 194h-32v-121c0-31-8-49-39-48C34-167 62-67 57 0H25l-1-190h30c1 10-1 24 2 32 11-22 29-35 61-36" id="aK"/><path d="M177-190C167-65 218 103 67 71c-23-6-38-20-44-43l32-5c15 47 100 32 89-28v-30C133-14 115 1 83 1 29 1 15-40 15-95c0-56 16-97 71-98 29-1 48 16 59 35 1-10 0-23 2-32h30zM94-22c36 0 50-32 50-73 0-42-14-75-50-75-39 0-46 34-46 75s6 73 46 73" id="aL"/><path d="M63-220v92h138v28H63V0H30v-248h175v28H63" id="aM"/><path d="M100-194c63 0 86 42 84 106H49c0 40 14 67 53 68 26 1 43-12 49-29l28 8c-11 28-37 45-77 45C44 4 14-33 15-96c1-61 26-98 85-98zm52 81c6-60-76-77-97-28-3 7-6 17-6 28h103" id="aN"/><path d="M33-154v-36h34v36H33zM33 0v-36h34V0H33" id="aO"/><g id="e"><use transform="matrix(0.05,0,0,0.05,0,0)" xlink:href="#aF"/><use transform="matrix(0.05,0,0,0.05,12,0)" xlink:href="#aG"/><use transform="matrix(0.05,0,0,0.05,22,0)" xlink:href="#aH"/><use transform="matrix(0.05,0,0,0.05,27.950000000000003,0)" xlink:href="#aI"/><use transform="matrix(0.05,0,0,0.05,36.95,0)" xlink:href="#aJ"/><use transform="matrix(0.05,0,0,0.05,40.900000000000006,0)" xlink:href="#aK"/><use transform="matrix(0.05,0,0,0.05,50.900000000000006,0)" xlink:href="#aL"/><use transform="matrix(0.05,0,0,0.05,60.900000000000006,0)" xlink:href="#aM"/><use transform="matrix(0.05,0,0,0.05,71.85000000000001,0)" xlink:href="#aN"/><use transform="matrix(0.05,0,0,0.05,81.85000000000001,0)" xlink:href="#aN"/><use transform="matrix(0.05,0,0,0.05,91.85000000000001,0)" xlink:href="#aO"/></g><path d="M59-47c-2 24 18 29 38 22v24C64 9 27 4 27-40v-127H5v-23h24l9-43h21v43h35v23H59v120" id="aP"/><g id="f"><use transform="matrix(0.05,0,0,0.05,0,0)" xlink:href="#aJ"/><use transform="matrix(0.05,0,0,0.05,3.95,0)" xlink:href="#aK"/><use transform="matrix(0.05,0,0,0.05,13.949999999999998,0)" xlink:href="#aP"/></g><path d="M18-150v-26h174v26H18zm0 90v-26h174v26H18" id="aQ"/><use transform="matrix(0.05,0,0,0.05,0,0)" xlink:href="#aQ" id="g"/><path d="M54-142c48-35 137-8 131 61C196 18 31 33 14-55l32-4c7 23 22 37 52 37 35-1 51-22 54-58 4-55-73-65-99-34H22l8-134h141v27H59" id="aR"/><path d="M101-251c68 0 85 55 85 127S166 4 100 4C33 4 14-52 14-124c0-73 17-127 87-127zm-1 229c47 0 54-49 54-102s-4-102-53-102c-51 0-55 48-55 102 0 53 5 102 54 102" id="aS"/><g id="h"><use transform="matrix(0.05,0,0,0.05,0,0)" xlink:href="#aR"/><use transform="matrix(0.05,0,0,0.05,10,0)" xlink:href="#aS"/><use transform="matrix(0.05,0,0,0.05,20,0)" xlink:href="#aS"/></g><g id="i"><use transform="matrix(0.05,0,0,0.05,0,0)" xlink:href="#aL"/><use transform="matrix(0.05,0,0,0.05,10,0)" xlink:href="#aN"/><use transform="matrix(0.05,0,0,0.05,20,0)" xlink:href="#aP"/><use transform="matrix(0.05,0,0,0.05,25,0)" xlink:href="#aF"/><use transform="matrix(0.05,0,0,0.05,37,0)" xlink:href="#aG"/><use transform="matrix(0.05,0,0,0.05,47,0)" xlink:href="#aH"/><use transform="matrix(0.05,0,0,0.05,52.95,0)" xlink:href="#aI"/><use transform="matrix(0.05,0,0,0.05,61.95,0)" xlink:href="#aJ"/><use transform="matrix(0.05,0,0,0.05,65.9,0)" xlink:href="#aK"/><use transform="matrix(0.05,0,0,0.05,75.9,0)" xlink:href="#aL"/><use transform="matrix(0.05,0,0,0.05,85.9,0)" xlink:href="#aM"/><use transform="matrix(0.05,0,0,0.05,96.85000000000001,0)" xlink:href="#aN"/><use transform="matrix(0.05,0,0,0.05,106.85000000000001,0)" xlink:href="#aN"/><use transform="matrix(0.05,0,0,0.05,116.85000000000001,0)" xlink:href="#aO"/></g><path d="M84 4C-5 8 30-112 23-190h32v120c0 31 7 50 39 49 72-2 45-101 50-169h31l1 190h-30c-1-10 1-25-2-33-11 22-28 36-60 37" id="aT"/><g id="j"><use transform="matrix(0.05,0,0,0.05,0,0)" xlink:href="#aH"/><use transform="matrix(0.05,0,0,0.05,5.95,0)" xlink:href="#aN"/><use transform="matrix(0.05,0,0,0.05,15.949999999999998,0)" xlink:href="#aP"/><use transform="matrix(0.05,0,0,0.05,20.95,0)" xlink:href="#aT"/><use transform="matrix(0.05,0,0,0.05,30.950000000000003,0)" xlink:href="#aH"/><use transform="matrix(0.05,0,0,0.05,36.9,0)" xlink:href="#aK"/></g><g id="k"><use transform="matrix(0.05,0,0,0.05,0,0)" xlink:href="#aJ"/><use transform="matrix(0.05,0,0,0.05,3.95,0)" xlink:href="#aK"/><use transform="matrix(0.05,0,0,0.05,13.949999999999998,0)" xlink:href="#aP"/></g><path d="M96-169c-40 0-48 33-48 73s9 75 48 75c24 0 41-14 43-38l32 2c-6 37-31 61-74 61-59 0-76-41-82-99-10-93 101-131 147-64 4 7 5 14 7 22l-32 3c-4-21-16-35-41-35" id="aU"/><path d="M106-169C34-169 62-67 57 0H25v-261h32l-1 103c12-21 28-36 61-36 89 0 53 116 60 194h-32v-121c2-32-8-49-39-48" id="aV"/><path d="M33 0v-248h34V0H33" id="aW"/><g id="l"><use transform="matrix(0.05,0,0,0.05,0,0)" xlink:href="#aU"/><use transform="matrix(0.05,0,0,0.05,9,0)" xlink:href="#aV"/><use transform="matrix(0.05,0,0,0.05,19,0)" xlink:href="#aN"/><use transform="matrix(0.05,0,0,0.05,29,0)" xlink:href="#aU"/><use transform="matrix(0.05,0,0,0.05,38,0)" xlink:href="#aI"/><use transform="matrix(0.05,0,0,0.05,47,0)" xlink:href="#aW"/><use transform="matrix(0.05,0,0,0.05,52,0)" xlink:href="#aK"/><use transform="matrix(0.05,0,0,0.05,62,0)" xlink:href="#aO"/></g><path d="M108 0H70L1-190h34L89-25l56-165h34" id="aX"/><path d="M100-194c62-1 85 37 85 99 1 63-27 99-86 99S16-35 15-95c0-66 28-99 85-99zM99-20c44 1 53-31 53-75 0-43-8-75-51-75s-53 32-53 75 10 74 51 75" id="aY"/><path d="M85-194c31 0 48 13 60 33l-1-100h32l1 261h-30c-2-10 0-23-3-31C134-8 116 4 85 4 32 4 16-35 15-94c0-66 23-100 70-100zm9 24c-40 0-46 34-46 75 0 40 6 74 45 74 42 0 51-32 51-76 0-42-9-74-50-73" id="aZ"/><g id="m"><use transform="matrix(0.05,0,0,0.05,0,0)" xlink:href="#aX"/><use transform="matrix(0.05,0,0,0.05,9,0)" xlink:href="#aY"/><use transform="matrix(0.05,0,0,0.05,19,0)" xlink:href="#aJ"/><use transform="matrix(0.05,0,0,0.05,22.95,0)" xlink:href="#aZ"/></g><path d="M140-251c81 0 123 46 123 126C263-46 219 4 140 4 59 4 17-45 17-125s42-126 123-126zm0 227c63 0 89-41 89-101s-29-99-89-99c-61 0-89 39-89 99S79-25 140-24" id="ba"/><g id="n"><use transform="matrix(0.05,0,0,0.05,0,0)" xlink:href="#aU"/><use transform="matrix(0.05,0,0,0.05,9,0)" xlink:href="#aV"/><use transform="matrix(0.05,0,0,0.05,19,0)" xlink:href="#aN"/><use transform="matrix(0.05,0,0,0.05,29,0)" xlink:href="#aU"/><use transform="matrix(0.05,0,0,0.05,38,0)" xlink:href="#aI"/><use transform="matrix(0.05,0,0,0.05,47,0)" xlink:href="#ba"/><use transform="matrix(0.05,0,0,0.05,61,0)" xlink:href="#aT"/><use transform="matrix(0.05,0,0,0.05,71,0)" xlink:href="#aP"/><use transform="matrix(0.05,0,0,0.05,76,0)" xlink:href="#aO"/></g><path d="M24 0v-261h32V0H24" id="bb"/><path d="M135-143c-3-34-86-38-87 0 15 53 115 12 119 90S17 21 10-45l28-5c4 36 97 45 98 0-10-56-113-15-118-90-4-57 82-63 122-42 12 7 21 19 24 35" id="bc"/><path d="M127-220V0H93v-220H8v-28h204v28h-85" id="bd"/><g id="o"><use transform="matrix(0.05,0,0,0.05,0,0)" xlink:href="#bb"/><use transform="matrix(0.05,0,0,0.05,3.95,0)" xlink:href="#aY"/><use transform="matrix(0.05,0,0,0.05,13.949999999999998,0)" xlink:href="#bc"/><use transform="matrix(0.05,0,0,0.05,22.95,0)" xlink:href="#aP"/><use transform="matrix(0.05,0,0,0.05,27.950000000000003,0)" xlink:href="#bd"/><use transform="matrix(0.05,0,0,0.05,38.25,0)" xlink:href="#aJ"/><use transform="matrix(0.05,0,0,0.05,42.2,0)" xlink:href="#aU"/><use transform="matrix(0.05,0,0,0.05,51.2,0)" xlink:href="#aI"/><use transform="matrix(0.05,0,0,0.05,60.2,0)" xlink:href="#aN"/><use transform="matrix(0.05,0,0,0.05,70.2,0)" xlink:href="#aP"/><use transform="matrix(0.05,0,0,0.05,75.2,0)" xlink:href="#aO"/></g><path d="M137 0h-34L2-248h35l83 218 83-218h36" id="be"/><g id="q"><use transform="matrix(0.05,0,0,0.05,0,0)" xlink:href="#be"/><use transform="matrix(0.05,0,0,0.05,11,0)" xlink:href="#aN"/><use transform="matrix(0.05,0,0,0.05,21,0)" xlink:href="#aV"/><use transform="matrix(0.05,0,0,0.05,31,0)" xlink:href="#aJ"/><use transform="matrix(0.05,0,0,0.05,34.95,0)" xlink:href="#aU"/><use transform="matrix(0.05,0,0,0.05,43.95,0)" xlink:href="#aG"/><use transform="matrix(0.05,0,0,0.05,53.95,0)" xlink:href="#bb"/><use transform="matrix(0.05,0,0,0.05,57.900000000000006,0)" xlink:href="#aN"/></g><path d="M16-82v-28h88v28H16" id="bf"/><use transform="matrix(0.05,0,0,0.05,0,0)" xlink:href="#bf" id="r"/><path d="M30-248c118-7 216 8 213 122C240-48 200 0 122 0H30v-248zM63-27c89 8 146-16 146-99s-60-101-146-95v194" id="bg"/><g id="s"><use transform="matrix(0.05,0,0,0.05,0,0)" xlink:href="#aW"/><use transform="matrix(0.05,0,0,0.05,5,0)" xlink:href="#bg"/><use transform="matrix(0.05,0,0,0.05,17.950000000000003,0)" xlink:href="#aO"/><use transform="matrix(0.05,0,0,0.05,22.950000000000003,0)" xlink:href="#aJ"/><use transform="matrix(0.05,0,0,0.05,26.900000000000002,0)" xlink:href="#aK"/><use transform="matrix(0.05,0,0,0.05,36.900000000000006,0)" xlink:href="#aP"/></g><g id="t"><use transform="matrix(0.05,0,0,0.05,0,0)" xlink:href="#aP"/><use transform="matrix(0.05,0,0,0.05,5,0)" xlink:href="#aJ"/><use transform="matrix(0.05,0,0,0.05,8.95,0)" xlink:href="#aU"/><use transform="matrix(0.05,0,0,0.05,17.95,0)" xlink:href="#aI"/><use transform="matrix(0.05,0,0,0.05,26.950000000000003,0)" xlink:href="#aN"/><use transform="matrix(0.05,0,0,0.05,36.95,0)" xlink:href="#aP"/><use transform="matrix(0.05,0,0,0.05,41.95,0)" xlink:href="#aF"/><use transform="matrix(0.05,0,0,0.05,53.95,0)" xlink:href="#aH"/><use transform="matrix(0.05,0,0,0.05,59.900000000000006,0)" xlink:href="#aJ"/><use transform="matrix(0.05,0,0,0.05,63.85,0)" xlink:href="#aU"/><use transform="matrix(0.05,0,0,0.05,72.85000000000001,0)" xlink:href="#aN"/><use transform="matrix(0.05,0,0,0.05,82.85000000000001,0)" xlink:href="#aO"/></g><path d="M115-194c53 0 69 39 70 98 0 66-23 100-70 100C84 3 66-7 56-30L54 0H23l1-261h32v101c10-23 28-34 59-34zm-8 174c40 0 45-34 45-75 0-40-5-75-45-74-42 0-51 32-51 76 0 43 10 73 51 73" id="bh"/><g id="u"><use transform="matrix(0.05,0,0,0.05,0,0)" xlink:href="#aZ"/><use transform="matrix(0.05,0,0,0.05,10,0)" xlink:href="#aY"/><use transform="matrix(0.05,0,0,0.05,20,0)" xlink:href="#aT"/><use transform="matrix(0.05,0,0,0.05,30,0)" xlink:href="#bh"/><use transform="matrix(0.05,0,0,0.05,40,0)" xlink:href="#bb"/><use transform="matrix(0.05,0,0,0.05,43.95,0)" xlink:href="#aN"/></g><path d="M210-169c-67 3-38 105-44 169h-31v-121c0-29-5-50-35-48C34-165 62-65 56 0H25l-1-190h30c1 10-1 24 2 32 10-44 99-50 107 0 11-21 27-35 58-36 85-2 47 119 55 194h-31v-121c0-29-5-49-35-48" id="bi"/><g id="v"><use transform="matrix(0.05,0,0,0.05,0,0)" xlink:href="#aU"/><use transform="matrix(0.05,0,0,0.05,9,0)" xlink:href="#aV"/><use transform="matrix(0.05,0,0,0.05,19,0)" xlink:href="#aN"/><use transform="matrix(0.05,0,0,0.05,29,0)" xlink:href="#aU"/><use transform="matrix(0.05,0,0,0.05,38,0)" xlink:href="#aI"/><use transform="matrix(0.05,0,0,0.05,47,0)" xlink:href="#aW"/><use transform="matrix(0.05,0,0,0.05,52,0)" xlink:href="#aK"/><use transform="matrix(0.05,0,0,0.05,62,0)" xlink:href="#bd"/><use transform="matrix(0.05,0,0,0.05,72.3,0)" xlink:href="#aJ"/><use transform="matrix(0.05,0,0,0.05,76.25,0)" xlink:href="#bi"/><use transform="matrix(0.05,0,0,0.05,91.2,0)" xlink:href="#aN"/><use transform="matrix(0.05,0,0,0.05,101.2,0)" xlink:href="#aO"/></g><path d="M30 0v-248h33v221h125V0H30" id="bj"/><g id="w"><use transform="matrix(0.05,0,0,0.05,0,0)" xlink:href="#bj"/><use transform="matrix(0.05,0,0,0.05,10,0)" xlink:href="#aY"/><use transform="matrix(0.05,0,0,0.05,20,0)" xlink:href="#aU"/><use transform="matrix(0.05,0,0,0.05,29,0)" xlink:href="#aG"/><use transform="matrix(0.05,0,0,0.05,39,0)" xlink:href="#bb"/><use transform="matrix(0.05,0,0,0.05,42.95,0)" xlink:href="#bd"/><use transform="matrix(0.05,0,0,0.05,53.25,0)" xlink:href="#aJ"/><use transform="matrix(0.05,0,0,0.05,57.20000000000002,0)" xlink:href="#bi"/><use transform="matrix(0.05,0,0,0.05,72.15,0)" xlink:href="#aN"/></g><g id="x"><use transform="matrix(0.05,0,0,0.05,0,0)" xlink:href="#aU"/><use transform="matrix(0.05,0,0,0.05,9,0)" xlink:href="#aV"/><use transform="matrix(0.05,0,0,0.05,19,0)" xlink:href="#aN"/><use transform="matrix(0.05,0,0,0.05,29,0)" xlink:href="#aU"/><use transform="matrix(0.05,0,0,0.05,38,0)" xlink:href="#aI"/><use transform="matrix(0.05,0,0,0.05,47,0)" xlink:href="#ba"/><use transform="matrix(0.05,0,0,0.05,61,0)" xlink:href="#aT"/><use transform="matrix(0.05,0,0,0.05,71,0)" xlink:href="#aP"/><use transform="matrix(0.05,0,0,0.05,76,0)" xlink:href="#bd"/><use transform="matrix(0.05,0,0,0.05,86.3,0)" xlink:href="#aJ"/><use transform="matrix(0.05,0,0,0.05,90.25,0)" xlink:href="#bi"/><use transform="matrix(0.05,0,0,0.05,105.2,0)" xlink:href="#aN"/><use transform="matrix(0.05,0,0,0.05,115.2,0)" xlink:href="#aO"/></g><g id="y"><use transform="matrix(0.05,0,0,0.05,0,0)" xlink:href="#bj"/><use transform="matrix(0.05,0,0,0.05,10,0)" xlink:href="#aY"/><use transform="matrix(0.05,0,0,0.05,20,0)" xlink:href="#aU"/><use transform="matrix(0.05,0,0,0.05,29,0)" xlink:href="#aG"/><use transform="matrix(0.05,0,0,0.05,39,0)" xlink:href="#bb"/><use transform="matrix(0.05,0,0,0.05,42.95,0)" xlink:href="#bd"/><use transform="matrix(0.05,0,0,0.05,53.25,0)" xlink:href="#aJ"/><use transform="matrix(0.05,0,0,0.05,57.20000000000002,0)" xlink:href="#bi"/><use transform="matrix(0.05,0,0,0.05,72.15,0)" xlink:href="#aN"/></g><path d="M118-107v75H92v-75H18v-26h74v-75h26v75h74v26h-74" id="bk"/><use transform="matrix(0.05,0,0,0.05,0,0)" xlink:href="#bk" id="z"/><path d="M212-179c-10-28-35-45-73-45-59 0-87 40-87 99 0 60 29 101 89 101 43 0 62-24 78-52l27 14C228-24 195 4 139 4 59 4 22-46 18-125c-6-104 99-153 187-111 19 9 31 26 39 46" id="bl"/><path d="M87 75C49 33 22-17 22-94c0-76 28-126 65-167h31c-38 41-64 92-64 168S80 34 118 75H87" id="bm"/><path d="M33-261c38 41 65 92 65 168S71 34 33 75H2C39 34 66-17 66-93S39-220 2-261h31" id="bn"/><g id="A"><use transform="matrix(0.05,0,0,0.05,0,0)" xlink:href="#aU"/><use transform="matrix(0.05,0,0,0.05,9,0)" xlink:href="#aG"/><use transform="matrix(0.05,0,0,0.05,19,0)" xlink:href="#bb"/><use transform="matrix(0.05,0,0,0.05,22.95,0)" xlink:href="#aU"/><use transform="matrix(0.05,0,0,0.05,31.950000000000003,0)" xlink:href="#bl"/><use transform="matrix(0.05,0,0,0.05,44.9,0)" xlink:href="#aV"/><use transform="matrix(0.05,0,0,0.05,54.900000000000006,0)" xlink:href="#aN"/><use transform="matrix(0.05,0,0,0.05,64.9,0)" xlink:href="#aU"/><use transform="matrix(0.05,0,0,0.05,73.9,0)" xlink:href="#aI"/><use transform="matrix(0.05,0,0,0.05,82.9,0)" xlink:href="#aW"/><use transform="matrix(0.05,0,0,0.05,87.9,0)" xlink:href="#aK"/><use transform="matrix(0.05,0,0,0.05,97.9,0)" xlink:href="#bd"/><use transform="matrix(0.05,0,0,0.05,108.2,0)" xlink:href="#aJ"/><use transform="matrix(0.05,0,0,0.05,112.15,0)" xlink:href="#bi"/><use transform="matrix(0.05,0,0,0.05,127.10000000000001,0)" xlink:href="#aN"/><use transform="matrix(0.05,0,0,0.05,137.10000000000002,0)" xlink:href="#bm"/><use transform="matrix(0.05,0,0,0.05,143.05,0)" xlink:href="#bn"/><use transform="matrix(0.05,0,0,0.05,149,0)" xlink:href="#aO"/><use transform="matrix(0.05,0,0,0.05,154,0)" xlink:href="#aX"/><use transform="matrix(0.05,0,0,0.05,163,0)" xlink:href="#aY"/><use transform="matrix(0.05,0,0,0.05,173,0)" xlink:href="#aJ"/><use transform="matrix(0.05,0,0,0.05,176.95,0)" xlink:href="#aZ"/></g><g id="B"><use transform="matrix(0.05,0,0,0.05,0,0)" xlink:href="#aU"/><use transform="matrix(0.05,0,0,0.05,9,0)" xlink:href="#aG"/><use transform="matrix(0.05,0,0,0.05,19,0)" xlink:href="#bb"/><use transform="matrix(0.05,0,0,0.05,22.95,0)" xlink:href="#aU"/><use transform="matrix(0.05,0,0,0.05,31.950000000000003,0)" xlink:href="#bl"/><use transform="matrix(0.05,0,0,0.05,44.9,0)" xlink:href="#aV"/><use transform="matrix(0.05,0,0,0.05,54.900000000000006,0)" xlink:href="#aN"/><use transform="matrix(0.05,0,0,0.05,64.9,0)" xlink:href="#aU"/><use transform="matrix(0.05,0,0,0.05,73.9,0)" xlink:href="#aI"/><use transform="matrix(0.05,0,0,0.05,82.9,0)" xlink:href="#ba"/><use transform="matrix(0.05,0,0,0.05,96.9,0)" xlink:href="#aT"/><use transform="matrix(0.05,0,0,0.05,106.9,0)" xlink:href="#aP"/><use transform="matrix(0.05,0,0,0.05,111.9,0)" xlink:href="#bd"/><use transform="matrix(0.05,0,0,0.05,122.2,0)" xlink:href="#aJ"/><use transform="matrix(0.05,0,0,0.05,126.15,0)" xlink:href="#bi"/><use transform="matrix(0.05,0,0,0.05,141.1,0)" xlink:href="#aN"/><use transform="matrix(0.05,0,0,0.05,151.1,0)" xlink:href="#bm"/><use transform="matrix(0.05,0,0,0.05,157.04999999999998,0)" xlink:href="#bn"/><use transform="matrix(0.05,0,0,0.05,162.99999999999997,0)" xlink:href="#aO"/></g><g id="C"><use transform="matrix(0.05,0,0,0.05,0,0)" xlink:href="#aL"/><use transform="matrix(0.05,0,0,0.05,10,0)" xlink:href="#aN"/><use transform="matrix(0.05,0,0,0.05,20,0)" xlink:href="#aP"/><use transform="matrix(0.05,0,0,0.05,25,0)" xlink:href="#aW"/><use transform="matrix(0.05,0,0,0.05,30,0)" xlink:href="#bg"/><use transform="matrix(0.05,0,0,0.05,42.95,0)" xlink:href="#bm"/><use transform="matrix(0.05,0,0,0.05,48.900000000000006,0)" xlink:href="#bn"/><use transform="matrix(0.05,0,0,0.05,54.85,0)" xlink:href="#aO"/></g><g id="D"><use transform="matrix(0.05,0,0,0.05,0,0)" xlink:href="#aH"/><use transform="matrix(0.05,0,0,0.05,5.95,0)" xlink:href="#aN"/><use transform="matrix(0.05,0,0,0.05,15.949999999999998,0)" xlink:href="#aP"/><use transform="matrix(0.05,0,0,0.05,20.95,0)" xlink:href="#aT"/><use transform="matrix(0.05,0,0,0.05,30.950000000000003,0)" xlink:href="#aH"/><use transform="matrix(0.05,0,0,0.05,36.9,0)" xlink:href="#aK"/></g><g id="E"><use transform="matrix(0.05,0,0,0.05,0,0)" xlink:href="#bc"/><use transform="matrix(0.05,0,0,0.05,9,0)" xlink:href="#aN"/><use transform="matrix(0.05,0,0,0.05,19,0)" xlink:href="#aP"/><use transform="matrix(0.05,0,0,0.05,24,0)" xlink:href="#aW"/><use transform="matrix(0.05,0,0,0.05,29,0)" xlink:href="#bg"/><use transform="matrix(0.05,0,0,0.05,41.95,0)" xlink:href="#bm"/><use transform="matrix(0.05,0,0,0.05,47.900000000000006,0)" xlink:href="#bn"/><use transform="matrix(0.05,0,0,0.05,53.85,0)" xlink:href="#aO"/></g><g id="F"><use transform="matrix(0.05,0,0,0.05,0,0)" xlink:href="#aL"/><use transform="matrix(0.05,0,0,0.05,10,0)" xlink:href="#aN"/><use transform="matrix(0.05,0,0,0.05,20,0)" xlink:href="#aP"/><use transform="matrix(0.05,0,0,0.05,25,0)" xlink:href="#bl"/><use transform="matrix(0.05,0,0,0.05,37.95,0)" xlink:href="#aV"/><use transform="matrix(0.05,0,0,0.05,47.95,0)" xlink:href="#aN"/><use transform="matrix(0.05,0,0,0.05,57.95,0)" xlink:href="#aU"/><use transform="matrix(0.05,0,0,0.05,66.95,0)" xlink:href="#aI"/><use transform="matrix(0.05,0,0,0.05,75.95,0)" xlink:href="#aW"/><use transform="matrix(0.05,0,0,0.05,80.95,0)" xlink:href="#aK"/><use transform="matrix(0.05,0,0,0.05,90.95,0)" xlink:href="#bd"/><use transform="matrix(0.05,0,0,0.05,101.25,0)" xlink:href="#aJ"/><use transform="matrix(0.05,0,0,0.05,105.2,0)" xlink:href="#bi"/><use transform="matrix(0.05,0,0,0.05,120.15,0)" xlink:href="#aN"/><use transform="matrix(0.05,0,0,0.05,130.15,0)" xlink:href="#aO"/></g><g id="G"><use transform="matrix(0.05,0,0,0.05,0,0)" xlink:href="#aL"/><use transform="matrix(0.05,0,0,0.05,10,0)" xlink:href="#aN"/><use transform="matrix(0.05,0,0,0.05,20,0)" xlink:href="#aP"/><use transform="matrix(0.05,0,0,0.05,25,0)" xlink:href="#bl"/><use transform="matrix(0.05,0,0,0.05,37.95,0)" xlink:href="#aV"/><use transform="matrix(0.05,0,0,0.05,47.95,0)" xlink:href="#aN"/><use transform="matrix(0.05,0,0,0.05,57.95,0)" xlink:href="#aU"/><use transform="matrix(0.05,0,0,0.05,66.95,0)" xlink:href="#aI"/><use transform="matrix(0.05,0,0,0.05,75.95,0)" xlink:href="#ba"/><use transform="matrix(0.05,0,0,0.05,89.95,0)" xlink:href="#aT"/><use transform="matrix(0.05,0,0,0.05,99.95,0)" xlink:href="#aP"/><use transform="matrix(0.05,0,0,0.05,104.95,0)" xlink:href="#bd"/><use transform="matrix(0.05,0,0,0.05,115.9,0)" xlink:href="#aW"/><use transform="matrix(0.05,0,0,0.05,120.9,0)" xlink:href="#bi"/><use transform="matrix(0.05,0,0,0.05,135.85,0)" xlink:href="#aN"/><use transform="matrix(0.05,0,0,0.05,145.85,0)" xlink:href="#aO"/></g><g id="H"><use transform="matrix(0.05,0,0,0.05,0,0)" xlink:href="#aL"/><use transform="matrix(0.05,0,0,0.05,10,0)" xlink:href="#aN"/><use transform="matrix(0.05,0,0,0.05,20,0)" xlink:href="#aP"/><use transform="matrix(0.05,0,0,0.05,25,0)" xlink:href="#bd"/><use transform="matrix(0.05,0,0,0.05,35.300000000000004,0)" xlink:href="#aJ"/><use transform="matrix(0.05,0,0,0.05,39.25000000000001,0)" xlink:href="#aU"/><use transform="matrix(0.05,0,0,0.05,48.25000000000001,0)" xlink:href="#aI"/><use transform="matrix(0.05,0,0,0.05,57.25,0)" xlink:href="#aN"/><use transform="matrix(0.05,0,0,0.05,67.25,0)" xlink:href="#aP"/><use transform="matrix(0.05,0,0,0.05,72.25,0)" xlink:href="#aF"/><use transform="matrix(0.05,0,0,0.05,84.25,0)" xlink:href="#aH"/><use transform="matrix(0.05,0,0,0.05,90.2,0)" xlink:href="#aJ"/><use transform="matrix(0.05,0,0,0.05,94.15,0)" xlink:href="#aU"/><use transform="matrix(0.05,0,0,0.05,103.15,0)" xlink:href="#aN"/></g><path d="M115-194c55 1 70 41 70 98S169 2 115 4C84 4 66-9 55-30l1 105H24l-1-265h31l2 30c10-21 28-34 59-34zm-8 174c40 0 45-34 45-75s-6-73-45-74c-42 0-51 32-51 76 0 43 10 73 51 73" id="bo"/><g id="I"><use transform="matrix(0.05,0,0,0.05,0,0)" xlink:href="#aW"/><use transform="matrix(0.05,0,0,0.05,5,0)" xlink:href="#bi"/><use transform="matrix(0.05,0,0,0.05,19.950000000000003,0)" xlink:href="#bo"/><use transform="matrix(0.05,0,0,0.05,29.950000000000003,0)" xlink:href="#bb"/><use transform="matrix(0.05,0,0,0.05,33.900000000000006,0)" xlink:href="#aN"/><use transform="matrix(0.05,0,0,0.05,43.900000000000006,0)" xlink:href="#bi"/><use transform="matrix(0.05,0,0,0.05,58.85,0)" xlink:href="#aN"/><use transform="matrix(0.05,0,0,0.05,68.85000000000001,0)" xlink:href="#aK"/><use transform="matrix(0.05,0,0,0.05,78.85000000000001,0)" xlink:href="#aP"/><use transform="matrix(0.05,0,0,0.05,83.85000000000001,0)" xlink:href="#bc"/></g><path d="M169-182c-1-43-94-46-97-3 18 66 151 10 154 114 3 95-165 93-204 36-6-8-10-19-12-30l50-8c3 46 112 56 116 5-17-69-150-10-154-114-4-87 153-88 188-35 5 8 8 18 10 28" id="bp"/><path d="M25-224v-37h50v37H25zM25 0v-190h50V0H25" id="bq"/><path d="M12 0v-35l95-120H19v-35h142v35L67-36h103V0H12" id="br"/><g id="J"><use transform="matrix(0.05,0,0,0.05,0,0)" xlink:href="#bp"/><use transform="matrix(0.05,0,0,0.05,12,0)" xlink:href="#au"/><use transform="matrix(0.05,0,0,0.05,22,0)" xlink:href="#av"/><use transform="matrix(0.05,0,0,0.05,29,0)" xlink:href="#bq"/><use transform="matrix(0.05,0,0,0.05,34,0)" xlink:href="#ax"/><use transform="matrix(0.05,0,0,0.05,44,0)" xlink:href="#aD"/><use transform="matrix(0.05,0,0,0.05,49,0)" xlink:href="#bq"/><use transform="matrix(0.05,0,0,0.05,54,0)" xlink:href="#br"/><use transform="matrix(0.05,0,0,0.05,63,0)" xlink:href="#ax"/><use transform="matrix(0.05,0,0,0.05,73,0)" xlink:href="#aC"/><use transform="matrix(0.05,0,0,0.05,83.95,0)" xlink:href="#aD"/><use transform="matrix(0.05,0,0,0.05,88.95,0)" xlink:href="#au"/></g><path d="M143 4C61 4 22-44 18-125c-5-107 100-154 193-111 17 8 29 25 37 43l-32 9c-13-25-37-40-76-40-61 0-88 39-88 99 0 61 29 100 91 101 35 0 62-11 79-27v-45h-74v-28h105v86C228-13 192 4 143 4" id="bs"/><path d="M266 0h-40l-56-210L115 0H75L2-248h35L96-30l15-64 43-154h32l59 218 59-218h35" id="bt"/><g id="K"><use transform="matrix(0.05,0,0,0.05,0,0)" xlink:href="#bs"/><use transform="matrix(0.05,0,0,0.05,14,0)" xlink:href="#aG"/><use transform="matrix(0.05,0,0,0.05,24,0)" xlink:href="#aH"/><use transform="matrix(0.05,0,0,0.05,29.950000000000003,0)" xlink:href="#aG"/><use transform="matrix(0.05,0,0,0.05,39.95,0)" xlink:href="#aL"/><use transform="matrix(0.05,0,0,0.05,49.95,0)" xlink:href="#aN"/><use transform="matrix(0.05,0,0,0.05,59.95,0)" xlink:href="#bt"/><use transform="matrix(0.05,0,0,0.05,76.55,0)" xlink:href="#aH"/><use transform="matrix(0.05,0,0,0.05,82.5,0)" xlink:href="#aJ"/><use transform="matrix(0.05,0,0,0.05,86.45,0)" xlink:href="#aP"/><use transform="matrix(0.05,0,0,0.05,91.45,0)" xlink:href="#aN"/><use transform="matrix(0.05,0,0,0.05,101.45,0)" xlink:href="#aH"/></g><path d="M206 0h-36l-40-164L89 0H53L-1-190h32L70-26l43-164h34l41 164 42-164h31" id="bu"/><path d="M185-189c-5-48-123-54-124 2 14 75 158 14 163 119 3 78-121 87-175 55-17-10-28-26-33-46l33-7c5 56 141 63 141-1 0-78-155-14-162-118-5-82 145-84 179-34 5 7 8 16 11 25" id="bv"/><g id="L"><use transform="matrix(0.05,0,0,0.05,0,0)" xlink:href="#bu"/><use transform="matrix(0.05,0,0,0.05,12.950000000000001,0)" xlink:href="#aH"/><use transform="matrix(0.05,0,0,0.05,18.900000000000002,0)" xlink:href="#aJ"/><use transform="matrix(0.05,0,0,0.05,22.85,0)" xlink:href="#aP"/><use transform="matrix(0.05,0,0,0.05,27.85,0)" xlink:href="#aN"/><use transform="matrix(0.05,0,0,0.05,37.85,0)" xlink:href="#bs"/><use transform="matrix(0.05,0,0,0.05,51.85,0)" xlink:href="#aG"/><use transform="matrix(0.05,0,0,0.05,61.85,0)" xlink:href="#aH"/><use transform="matrix(0.05,0,0,0.05,67.8,0)" xlink:href="#aG"/><use transform="matrix(0.05,0,0,0.05,77.8,0)" xlink:href="#aL"/><use transform="matrix(0.05,0,0,0.05,87.8,0)" xlink:href="#aN"/><use transform="matrix(0.05,0,0,0.05,97.8,0)" xlink:href="#aM"/><use transform="matrix(0.05,0,0,0.05,108.75,0)" xlink:href="#aJ"/><use transform="matrix(0.05,0,0,0.05,112.7,0)" xlink:href="#bb"/><use transform="matrix(0.05,0,0,0.05,116.65,0)" xlink:href="#aN"/><use transform="matrix(0.05,0,0,0.05,126.65,0)" xlink:href="#bm"/><use transform="matrix(0.05,0,0,0.05,132.6,0)" xlink:href="#bv"/><use transform="matrix(0.05,0,0,0.05,144.6,0)" xlink:href="#aP"/><use transform="matrix(0.05,0,0,0.05,149.6,0)" xlink:href="#aH"/><use transform="matrix(0.05,0,0,0.05,155.54999999999998,0)" xlink:href="#aJ"/><use transform="matrix(0.05,0,0,0.05,159.49999999999997,0)" xlink:href="#aK"/><use transform="matrix(0.05,0,0,0.05,169.49999999999997,0)" xlink:href="#aL"/></g><path d="M101-234c-31-9-42 10-38 44h38v23H63V0H32v-167H5v-23h27c-7-52 17-82 69-68v24" id="bw"/><path d="M190 0L58-211 59 0H30v-248h39L202-35l-2-213h31V0h-41" id="bx"/><path d="M68-38c1 34 0 65-14 84H32c9-13 17-26 17-46H33v-38h35" id="by"/><g id="M"><use transform="matrix(0.05,0,0,0.05,0,0)" xlink:href="#bw"/><use transform="matrix(0.05,0,0,0.05,5,0)" xlink:href="#aJ"/><use transform="matrix(0.05,0,0,0.05,8.95,0)" xlink:href="#bb"/><use transform="matrix(0.05,0,0,0.05,12.899999999999999,0)" xlink:href="#aN"/><use transform="matrix(0.05,0,0,0.05,22.9,0)" xlink:href="#bx"/><use transform="matrix(0.05,0,0,0.05,35.85,0)" xlink:href="#aG"/><use transform="matrix(0.05,0,0,0.05,45.85,0)" xlink:href="#bi"/><use transform="matrix(0.05,0,0,0.05,60.800000000000004,0)" xlink:href="#aN"/><use transform="matrix(0.05,0,0,0.05,70.80000000000001,0)" xlink:href="#by"/></g><path d="M197 0v-115H63V0H30v-248h33v105h134v-105h34V0h-34" id="bz"/><path d="M240 0l2-218c-23 76-54 145-80 218h-23L58-218 59 0H30v-248h44l77 211c21-75 51-140 76-211h43V0h-30" id="bA"/><path d="M18-100v-36l175-74v27L42-118l151 64v27" id="bB"/><g id="N"><use transform="matrix(0.05,0,0,0.05,0,0)" xlink:href="#bz"/><use transform="matrix(0.05,0,0,0.05,12.950000000000001,0)" xlink:href="#aG"/><use transform="matrix(0.05,0,0,0.05,22.950000000000003,0)" xlink:href="#bc"/><use transform="matrix(0.05,0,0,0.05,31.950000000000003,0)" xlink:href="#aV"/><use transform="matrix(0.05,0,0,0.05,41.95,0)" xlink:href="#bA"/><use transform="matrix(0.05,0,0,0.05,56.900000000000006,0)" xlink:href="#aG"/><use transform="matrix(0.05,0,0,0.05,66.9,0)" xlink:href="#bo"/><use transform="matrix(0.05,0,0,0.05,76.9,0)" xlink:href="#bB"/><use transform="matrix(0.05,0,0,0.05,87.4,0)" xlink:href="#be"/><use transform="matrix(0.05,0,0,0.05,98.4,0)" xlink:href="#aN"/><use transform="matrix(0.05,0,0,0.05,108.4,0)" xlink:href="#aV"/><use transform="matrix(0.05,0,0,0.05,118.4,0)" xlink:href="#aJ"/><use transform="matrix(0.05,0,0,0.05,122.35000000000001,0)" xlink:href="#aU"/><use transform="matrix(0.05,0,0,0.05,131.35000000000002,0)" xlink:href="#bb"/><use transform="matrix(0.05,0,0,0.05,135.3,0)" xlink:href="#aN"/><use transform="matrix(0.05,0,0,0.05,145.3,0)" xlink:href="#by"/></g><path d="M179-190L93 31C79 59 56 82 12 73V49c39 6 53-20 64-50L1-190h34L92-34l54-156h33" id="bC"/><path d="M18-27v-27l151-64-151-65v-27l175 74v36" id="bD"/><g id="O"><use transform="matrix(0.05,0,0,0.05,0,0)" xlink:href="#bd"/><use transform="matrix(0.05,0,0,0.05,10.3,0)" xlink:href="#aJ"/><use transform="matrix(0.05,0,0,0.05,14.25,0)" xlink:href="#aU"/><use transform="matrix(0.05,0,0,0.05,23.25,0)" xlink:href="#aI"/><use transform="matrix(0.05,0,0,0.05,32.25,0)" xlink:href="#aN"/><use transform="matrix(0.05,0,0,0.05,42.25,0)" xlink:href="#aP"/><use transform="matrix(0.05,0,0,0.05,47.25,0)" xlink:href="#bd"/><use transform="matrix(0.05,0,0,0.05,57.2,0)" xlink:href="#bC"/><use transform="matrix(0.05,0,0,0.05,66.2,0)" xlink:href="#bo"/><use transform="matrix(0.05,0,0,0.05,76.2,0)" xlink:href="#aN"/><use transform="matrix(0.05,0,0,0.05,86.2,0)" xlink:href="#bD"/></g><g id="P"><use transform="matrix(0.05,0,0,0.05,0,0)" xlink:href="#aP"/><use transform="matrix(0.05,0,0,0.05,5,0)" xlink:href="#aJ"/><use transform="matrix(0.05,0,0,0.05,8.95,0)" xlink:href="#aU"/><use transform="matrix(0.05,0,0,0.05,17.95,0)" xlink:href="#aI"/><use transform="matrix(0.05,0,0,0.05,26.950000000000003,0)" xlink:href="#aN"/><use transform="matrix(0.05,0,0,0.05,36.95,0)" xlink:href="#aP"/><use transform="matrix(0.05,0,0,0.05,41.95,0)" xlink:href="#bj"/><use transform="matrix(0.05,0,0,0.05,51.95,0)" xlink:href="#aJ"/><use transform="matrix(0.05,0,0,0.05,55.900000000000006,0)" xlink:href="#bc"/><use transform="matrix(0.05,0,0,0.05,64.9,0)" xlink:href="#aP"/><use transform="matrix(0.05,0,0,0.05,69.9,0)" xlink:href="#bn"/><use transform="matrix(0.05,0,0,0.05,75.85000000000001,0)" xlink:href="#aO"/></g><path d="M233-177c-1 41-23 64-60 70L243 0h-38l-65-103H63V0H30v-248c88 3 205-21 203 71zM63-129c60-2 137 13 137-47 0-61-80-42-137-45v92" id="bE"/><g id="Q"><use transform="matrix(0.05,0,0,0.05,0,0)" xlink:href="#bs"/><use transform="matrix(0.05,0,0,0.05,14,0)" xlink:href="#aG"/><use transform="matrix(0.05,0,0,0.05,24,0)" xlink:href="#aH"/><use transform="matrix(0.05,0,0,0.05,29.950000000000003,0)" xlink:href="#aG"/><use transform="matrix(0.05,0,0,0.05,39.95,0)" xlink:href="#aL"/><use transform="matrix(0.05,0,0,0.05,49.95,0)" xlink:href="#aN"/><use transform="matrix(0.05,0,0,0.05,59.95,0)" xlink:href="#bE"/><use transform="matrix(0.05,0,0,0.05,72.9,0)" xlink:href="#aN"/><use transform="matrix(0.05,0,0,0.05,82.9,0)" xlink:href="#aG"/><use transform="matrix(0.05,0,0,0.05,92.9,0)" xlink:href="#aZ"/><use transform="matrix(0.05,0,0,0.05,102.9,0)" xlink:href="#aN"/><use transform="matrix(0.05,0,0,0.05,112.9,0)" xlink:href="#aH"/></g><g id="R"><use transform="matrix(0.05,0,0,0.05,0,0)" xlink:href="#aH"/><use transform="matrix(0.05,0,0,0.05,5.95,0)" xlink:href="#aN"/><use transform="matrix(0.05,0,0,0.05,15.949999999999998,0)" xlink:href="#aG"/><use transform="matrix(0.05,0,0,0.05,25.950000000000003,0)" xlink:href="#aZ"/><use transform="matrix(0.05,0,0,0.05,35.95,0)" xlink:href="#bs"/><use transform="matrix(0.05,0,0,0.05,49.95,0)" xlink:href="#aG"/><use transform="matrix(0.05,0,0,0.05,59.95,0)" xlink:href="#aH"/><use transform="matrix(0.05,0,0,0.05,65.9,0)" xlink:href="#aG"/><use transform="matrix(0.05,0,0,0.05,75.9,0)" xlink:href="#aL"/><use transform="matrix(0.05,0,0,0.05,85.9,0)" xlink:href="#aN"/><use transform="matrix(0.05,0,0,0.05,95.9,0)" xlink:href="#aM"/><use transform="matrix(0.05,0,0,0.05,106.85000000000001,0)" xlink:href="#aJ"/><use transform="matrix(0.05,0,0,0.05,110.80000000000001,0)" xlink:href="#bb"/><use transform="matrix(0.05,0,0,0.05,114.75,0)" xlink:href="#aN"/><use transform="matrix(0.05,0,0,0.05,124.75,0)" xlink:href="#bm"/><use transform="matrix(0.05,0,0,0.05,130.70000000000002,0)" xlink:href="#bv"/><use transform="matrix(0.05,0,0,0.05,142.70000000000002,0)" xlink:href="#aP"/><use transform="matrix(0.05,0,0,0.05,147.70000000000002,0)" xlink:href="#aH"/><use transform="matrix(0.05,0,0,0.05,153.65,0)" xlink:href="#aJ"/><use transform="matrix(0.05,0,0,0.05,157.6,0)" xlink:href="#aK"/><use transform="matrix(0.05,0,0,0.05,167.6,0)" xlink:href="#aL"/></g><g id="S"><use transform="matrix(0.05,0,0,0.05,0,0)" xlink:href="#bw"/><use transform="matrix(0.05,0,0,0.05,5,0)" xlink:href="#aJ"/><use transform="matrix(0.05,0,0,0.05,8.95,0)" xlink:href="#bb"/><use transform="matrix(0.05,0,0,0.05,12.899999999999999,0)" xlink:href="#aN"/><use transform="matrix(0.05,0,0,0.05,22.9,0)" xlink:href="#bx"/><use transform="matrix(0.05,0,0,0.05,35.85,0)" xlink:href="#aG"/><use transform="matrix(0.05,0,0,0.05,45.85,0)" xlink:href="#bi"/><use transform="matrix(0.05,0,0,0.05,60.800000000000004,0)" xlink:href="#aN"/><use transform="matrix(0.05,0,0,0.05,70.80000000000001,0)" xlink:href="#bn"/><use transform="matrix(0.05,0,0,0.05,76.75000000000001,0)" xlink:href="#aO"/><use transform="matrix(0.05,0,0,0.05,81.75000000000001,0)" xlink:href="#aH"/><use transform="matrix(0.05,0,0,0.05,87.70000000000002,0)" xlink:href="#aN"/><use transform="matrix(0.05,0,0,0.05,97.70000000000002,0)" xlink:href="#aP"/><use transform="matrix(0.05,0,0,0.05,102.7,0)" xlink:href="#aT"/><use transform="matrix(0.05,0,0,0.05,112.7,0)" xlink:href="#aH"/><use transform="matrix(0.05,0,0,0.05,118.65000000000003,0)" xlink:href="#aK"/></g><g id="T"><use transform="matrix(0.05,0,0,0.05,0,0)" xlink:href="#bz"/><use transform="matrix(0.05,0,0,0.05,12.950000000000001,0)" xlink:href="#aG"/><use transform="matrix(0.05,0,0,0.05,22.950000000000003,0)" xlink:href="#bc"/><use transform="matrix(0.05,0,0,0.05,31.950000000000003,0)" xlink:href="#aV"/><use transform="matrix(0.05,0,0,0.05,41.95,0)" xlink:href="#bA"/><use transform="matrix(0.05,0,0,0.05,56.900000000000006,0)" xlink:href="#aG"/><use transform="matrix(0.05,0,0,0.05,66.9,0)" xlink:href="#bo"/><use transform="matrix(0.05,0,0,0.05,76.9,0)" xlink:href="#bB"/><use transform="matrix(0.05,0,0,0.05,87.4,0)" xlink:href="#be"/><use transform="matrix(0.05,0,0,0.05,98.4,0)" xlink:href="#aN"/><use transform="matrix(0.05,0,0,0.05,108.4,0)" xlink:href="#aV"/><use transform="matrix(0.05,0,0,0.05,118.4,0)" xlink:href="#aJ"/><use transform="matrix(0.05,0,0,0.05,122.35000000000001,0)" xlink:href="#aU"/><use transform="matrix(0.05,0,0,0.05,131.35000000000002,0)" xlink:href="#bb"/><use transform="matrix(0.05,0,0,0.05,135.3,0)" xlink:href="#aN"/><use transform="matrix(0.05,0,0,0.05,145.3,0)" xlink:href="#by"/></g><g id="U"><use transform="matrix(0.05,0,0,0.05,0,0)" xlink:href="#aP"/><use transform="matrix(0.05,0,0,0.05,5,0)" xlink:href="#aJ"/><use transform="matrix(0.05,0,0,0.05,8.95,0)" xlink:href="#aU"/><use transform="matrix(0.05,0,0,0.05,17.95,0)" xlink:href="#aI"/><use transform="matrix(0.05,0,0,0.05,26.950000000000003,0)" xlink:href="#aN"/><use transform="matrix(0.05,0,0,0.05,36.95,0)" xlink:href="#aP"/><use transform="matrix(0.05,0,0,0.05,41.95,0)" xlink:href="#bj"/><use transform="matrix(0.05,0,0,0.05,51.95,0)" xlink:href="#aJ"/><use transform="matrix(0.05,0,0,0.05,55.900000000000006,0)" xlink:href="#bc"/><use transform="matrix(0.05,0,0,0.05,64.9,0)" xlink:href="#aP"/></g><g id="V"><use transform="matrix(0.05,0,0,0.05,0,0)" xlink:href="#bA"/><use transform="matrix(0.05,0,0,0.05,14.950000000000001,0)" xlink:href="#aG"/><use transform="matrix(0.05,0,0,0.05,24.950000000000003,0)" xlink:href="#aJ"/><use transform="matrix(0.05,0,0,0.05,28.900000000000002,0)" xlink:href="#aK"/></g><g id="W"><use transform="matrix(0.05,0,0,0.05,0,0)" xlink:href="#bk"/><use transform="matrix(0.05,0,0,0.05,10.5,0)" xlink:href="#bz"/><use transform="matrix(0.05,0,0,0.05,23.450000000000003,0)" xlink:href="#aG"/><use transform="matrix(0.05,0,0,0.05,33.45,0)" xlink:href="#bc"/><use transform="matrix(0.05,0,0,0.05,42.45,0)" xlink:href="#aV"/><use transform="matrix(0.05,0,0,0.05,52.45,0)" xlink:href="#bA"/><use transform="matrix(0.05,0,0,0.05,67.4,0)" xlink:href="#aG"/><use transform="matrix(0.05,0,0,0.05,77.4,0)" xlink:href="#bo"/><use transform="matrix(0.05,0,0,0.05,87.4,0)" xlink:href="#bB"/><use transform="matrix(0.05,0,0,0.05,97.9,0)" xlink:href="#be"/><use transform="matrix(0.05,0,0,0.05,108.9,0)" xlink:href="#aN"/><use transform="matrix(0.05,0,0,0.05,118.9,0)" xlink:href="#aV"/><use transform="matrix(0.05,0,0,0.05,128.9,0)" xlink:href="#aJ"/><use transform="matrix(0.05,0,0,0.05,132.85,0)" xlink:href="#aU"/><use transform="matrix(0.05,0,0,0.05,141.85,0)" xlink:href="#bb"/><use transform="matrix(0.05,0,0,0.05,145.79999999999998,0)" xlink:href="#aN"/><use transform="matrix(0.05,0,0,0.05,155.79999999999998,0)" xlink:href="#by"/></g><g id="X"><use transform="matrix(0.05,0,0,0.05,0,0)" xlink:href="#bd"/><use transform="matrix(0.05,0,0,0.05,10.3,0)" xlink:href="#aJ"/><use transform="matrix(0.05,0,0,0.05,14.25,0)" xlink:href="#aU"/><use transform="matrix(0.05,0,0,0.05,23.25,0)" xlink:href="#aI"/><use transform="matrix(0.05,0,0,0.05,32.25,0)" xlink:href="#aN"/><use transform="matrix(0.05,0,0,0.05,42.25,0)" xlink:href="#aP"/><use transform="matrix(0.05,0,0,0.05,47.25,0)" xlink:href="#bd"/><use transform="matrix(0.05,0,0,0.05,57.2,0)" xlink:href="#bC"/><use transform="matrix(0.05,0,0,0.05,66.2,0)" xlink:href="#bo"/><use transform="matrix(0.05,0,0,0.05,76.2,0)" xlink:href="#aN"/><use transform="matrix(0.05,0,0,0.05,86.2,0)" xlink:href="#bD"/></g><g id="Y"><use transform="matrix(0.05,0,0,0.05,0,0)" xlink:href="#bi"/><use transform="matrix(0.05,0,0,0.05,14.950000000000001,0)" xlink:href="#aG"/><use transform="matrix(0.05,0,0,0.05,24.950000000000003,0)" xlink:href="#aJ"/><use transform="matrix(0.05,0,0,0.05,28.900000000000002,0)" xlink:href="#aK"/><use transform="matrix(0.05,0,0,0.05,38.900000000000006,0)" xlink:href="#bm"/><use transform="matrix(0.05,0,0,0.05,44.85000000000001,0)" xlink:href="#bv"/><use transform="matrix(0.05,0,0,0.05,56.85,0)" xlink:href="#aP"/><use transform="matrix(0.05,0,0,0.05,61.85,0)" xlink:href="#aH"/><use transform="matrix(0.05,0,0,0.05,67.80000000000001,0)" xlink:href="#aJ"/><use transform="matrix(0.05,0,0,0.05,71.75000000000001,0)" xlink:href="#aK"/><use transform="matrix(0.05,0,0,0.05,81.75000000000001,0)" xlink:href="#aL"/></g><path d="M26 75v-336h71v23H56V52h41v23H26" id="bF"/><path d="M3 75V52h41v-290H3v-23h71V75H3" id="bG"/><g id="Z"><use transform="matrix(0.05,0,0,0.05,0,0)" xlink:href="#aG"/><use transform="matrix(0.05,0,0,0.05,10,0)" xlink:href="#aH"/><use transform="matrix(0.05,0,0,0.05,15.949999999999998,0)" xlink:href="#aL"/><use transform="matrix(0.05,0,0,0.05,25.950000000000003,0)" xlink:href="#bc"/><use transform="matrix(0.05,0,0,0.05,34.95,0)" xlink:href="#bF"/><use transform="matrix(0.05,0,0,0.05,39.95,0)" xlink:href="#bG"/><use transform="matrix(0.05,0,0,0.05,44.95,0)" xlink:href="#bn"/><use transform="matrix(0.05,0,0,0.05,50.900000000000006,0)" xlink:href="#aO"/><use transform="matrix(0.05,0,0,0.05,55.900000000000006,0)" xlink:href="#aX"/><use transform="matrix(0.05,0,0,0.05,64.9,0)" xlink:href="#aY"/><use transform="matrix(0.05,0,0,0.05,74.9,0)" xlink:href="#aJ"/><use transform="matrix(0.05,0,0,0.05,78.85000000000001,0)" xlink:href="#aZ"/></g><g id="aa"><use transform="matrix(0.05,0,0,0.05,0,0)" xlink:href="#bi"/><use transform="matrix(0.05,0,0,0.05,14.950000000000001,0)" xlink:href="#aN"/><use transform="matrix(0.05,0,0,0.05,24.950000000000003,0)" xlink:href="#aK"/><use transform="matrix(0.05,0,0,0.05,34.95,0)" xlink:href="#aT"/><use transform="matrix(0.05,0,0,0.05,44.95,0)" xlink:href="#bz"/><use transform="matrix(0.05,0,0,0.05,57.900000000000006,0)" xlink:href="#aN"/><use transform="matrix(0.05,0,0,0.05,67.9,0)" xlink:href="#aG"/><use transform="matrix(0.05,0,0,0.05,77.9,0)" xlink:href="#aZ"/><use transform="matrix(0.05,0,0,0.05,87.9,0)" xlink:href="#aN"/><use transform="matrix(0.05,0,0,0.05,97.9,0)" xlink:href="#aH"/><use transform="matrix(0.05,0,0,0.05,103.85000000000001,0)" xlink:href="#bm"/><use transform="matrix(0.05,0,0,0.05,109.80000000000001,0)" xlink:href="#bn"/><use transform="matrix(0.05,0,0,0.05,115.75,0)" xlink:href="#aO"/></g><g id="ab"><use transform="matrix(0.05,0,0,0.05,0,0)" xlink:href="#bv"/><use transform="matrix(0.05,0,0,0.05,12,0)" xlink:href="#aP"/><use transform="matrix(0.05,0,0,0.05,17,0)" xlink:href="#aH"/><use transform="matrix(0.05,0,0,0.05,22.95,0)" xlink:href="#aJ"/><use transform="matrix(0.05,0,0,0.05,26.899999999999995,0)" xlink:href="#aK"/><use transform="matrix(0.05,0,0,0.05,36.9,0)" xlink:href="#aL"/></g><g id="ac"><use transform="matrix(0.05,0,0,0.05,0,0)" xlink:href="#aU"/><use transform="matrix(0.05,0,0,0.05,9,0)" xlink:href="#aV"/><use transform="matrix(0.05,0,0,0.05,19,0)" xlink:href="#aN"/><use transform="matrix(0.05,0,0,0.05,29,0)" xlink:href="#aU"/><use transform="matrix(0.05,0,0,0.05,38,0)" xlink:href="#aI"/><use transform="matrix(0.05,0,0,0.05,47,0)" xlink:href="#aW"/><use transform="matrix(0.05,0,0,0.05,52,0)" xlink:href="#aK"/><use transform="matrix(0.05,0,0,0.05,62,0)" xlink:href="#bA"/><use transform="matrix(0.05,0,0,0.05,76.95,0)" xlink:href="#aN"/><use transform="matrix(0.05,0,0,0.05,86.95,0)" xlink:href="#aK"/><use transform="matrix(0.05,0,0,0.05,96.95,0)" xlink:href="#aT"/><use transform="matrix(0.05,0,0,0.05,106.95,0)" xlink:href="#bm"/><use transform="matrix(0.05,0,0,0.05,112.9,0)" xlink:href="#bn"/><use transform="matrix(0.05,0,0,0.05,118.85000000000001,0)" xlink:href="#aO"/></g><g id="ad"><use transform="matrix(0.05,0,0,0.05,0,0)" xlink:href="#aU"/><use transform="matrix(0.05,0,0,0.05,9,0)" xlink:href="#aV"/><use transform="matrix(0.05,0,0,0.05,19,0)" xlink:href="#aN"/><use transform="matrix(0.05,0,0,0.05,29,0)" xlink:href="#aU"/><use transform="matrix(0.05,0,0,0.05,38,0)" xlink:href="#aI"/><use transform="matrix(0.05,0,0,0.05,47,0)" xlink:href="#ba"/><use transform="matrix(0.05,0,0,0.05,61,0)" xlink:href="#aT"/><use transform="matrix(0.05,0,0,0.05,71,0)" xlink:href="#aP"/><use transform="matrix(0.05,0,0,0.05,76,0)" xlink:href="#bA"/><use transform="matrix(0.05,0,0,0.05,90.95,0)" xlink:href="#aN"/><use transform="matrix(0.05,0,0,0.05,100.95,0)" xlink:href="#aK"/><use transform="matrix(0.05,0,0,0.05,110.95,0)" xlink:href="#aT"/><use transform="matrix(0.05,0,0,0.05,120.95,0)" xlink:href="#bm"/><use transform="matrix(0.05,0,0,0.05,126.9,0)" xlink:href="#bn"/><use transform="matrix(0.05,0,0,0.05,132.85,0)" xlink:href="#aO"/></g><path d="M160-131c35 5 61 23 61 61C221 17 115-2 30 0v-248c76 3 177-17 177 60 0 33-19 50-47 57zm-97-11c50-1 110 9 110-42 0-47-63-36-110-37v79zm0 115c55-2 124 14 124-45 0-56-70-42-124-44v89" id="bH"/><g id="ae"><use transform="matrix(0.05,0,0,0.05,0,0)" xlink:href="#aU"/><use transform="matrix(0.05,0,0,0.05,9,0)" xlink:href="#aV"/><use transform="matrix(0.05,0,0,0.05,19,0)" xlink:href="#aN"/><use transform="matrix(0.05,0,0,0.05,29,0)" xlink:href="#aU"/><use transform="matrix(0.05,0,0,0.05,38,0)" xlink:href="#aI"/><use transform="matrix(0.05,0,0,0.05,47,0)" xlink:href="#ba"/><use transform="matrix(0.05,0,0,0.05,61,0)" xlink:href="#aT"/><use transform="matrix(0.05,0,0,0.05,71,0)" xlink:href="#aP"/><use transform="matrix(0.05,0,0,0.05,76,0)" xlink:href="#bH"/><use transform="matrix(0.05,0,0,0.05,88,0)" xlink:href="#aJ"/><use transform="matrix(0.05,0,0,0.05,91.95,0)" xlink:href="#bb"/><use transform="matrix(0.05,0,0,0.05,95.9,0)" xlink:href="#bb"/><use transform="matrix(0.05,0,0,0.05,99.85000000000001,0)" xlink:href="#bm"/><use transform="matrix(0.05,0,0,0.05,105.80000000000001,0)" xlink:href="#be"/><use transform="matrix(0.05,0,0,0.05,116.80000000000001,0)" xlink:href="#aN"/><use transform="matrix(0.05,0,0,0.05,126.80000000000001,0)" xlink:href="#aV"/><use transform="matrix(0.05,0,0,0.05,136.8,0)" xlink:href="#aJ"/><use transform="matrix(0.05,0,0,0.05,140.75,0)" xlink:href="#aU"/><use transform="matrix(0.05,0,0,0.05,149.75,0)" xlink:href="#bb"/><use transform="matrix(0.05,0,0,0.05,153.7,0)" xlink:href="#aN"/><use transform="matrix(0.05,0,0,0.05,163.7,0)" xlink:href="#bn"/><use transform="matrix(0.05,0,0,0.05,169.64999999999998,0)" xlink:href="#aO"/></g><g id="af"><use transform="matrix(0.05,0,0,0.05,0,0)" xlink:href="#bb"/><use transform="matrix(0.05,0,0,0.05,3.95,0)" xlink:href="#aY"/><use transform="matrix(0.05,0,0,0.05,13.949999999999998,0)" xlink:href="#bc"/><use transform="matrix(0.05,0,0,0.05,22.95,0)" xlink:href="#aP"/><use transform="matrix(0.05,0,0,0.05,27.950000000000003,0)" xlink:href="#bd"/><use transform="matrix(0.05,0,0,0.05,38.25,0)" xlink:href="#aJ"/><use transform="matrix(0.05,0,0,0.05,42.2,0)" xlink:href="#aU"/><use transform="matrix(0.05,0,0,0.05,51.2,0)" xlink:href="#aI"/><use transform="matrix(0.05,0,0,0.05,60.2,0)" xlink:href="#aN"/><use transform="matrix(0.05,0,0,0.05,70.2,0)" xlink:href="#aP"/><use transform="matrix(0.05,0,0,0.05,75.2,0)" xlink:href="#bH"/><use transform="matrix(0.05,0,0,0.05,87.2,0)" xlink:href="#aJ"/><use transform="matrix(0.05,0,0,0.05,91.15,0)" xlink:href="#bb"/><use transform="matrix(0.05,0,0,0.05,95.10000000000001,0)" xlink:href="#bb"/><use transform="matrix(0.05,0,0,0.05,99.05000000000001,0)" xlink:href="#bm"/><use transform="matrix(0.05,0,0,0.05,105,0)" xlink:href="#be"/><use transform="matrix(0.05,0,0,0.05,116,0)" xlink:href="#aN"/><use transform="matrix(0.05,0,0,0.05,126,0)" xlink:href="#aV"/><use transform="matrix(0.05,0,0,0.05,136,0)" xlink:href="#aJ"/><use transform="matrix(0.05,0,0,0.05,139.95,0)" xlink:href="#aU"/><use transform="matrix(0.05,0,0,0.05,148.95,0)" xlink:href="#bb"/><use transform="matrix(0.05,0,0,0.05,152.89999999999998,0)" xlink:href="#aN"/><use transform="matrix(0.05,0,0,0.05,162.89999999999998,0)" xlink:href="#bn"/><use transform="matrix(0.05,0,0,0.05,168.84999999999997,0)" xlink:href="#aO"/></g><use transform="matrix(0.05,0,0,0.05,0,0)" xlink:href="#bk" id="ag"/><path d="M179 0l23-115H67L45 0H11l48-248h34L72-143h135l21-105h32L212 0h-33" id="bI"/><path d="M165-48c-4 18 1 34 23 27l-3 20c-29 8-62 0-52-35h-2C116-14 99 4 63 4 30 4 8-16 8-49c0-68 71-67 138-67 10-26 0-56-31-54-26 1-42 9-47 31l-32-5c8-67 160-71 144 15-5 28-9 54-15 81zM42-50c3 52 80 24 89-6 7-12 7-24 11-38-47 1-103-4-100 44" id="bJ"/><path d="M55-144c13 50 104 24 104 88C159 21 15 23 1-39l26-10c6 40 102 42 102-4-13-50-104-23-104-87 0-71 143-71 148-8l-29 4c-5-35-85-37-89 0" id="bK"/><path d="M67-158c15-20 31-36 64-36 94 0 33 127 27 194h-32l25-140c3-38-53-32-70-12C52-117 51-51 37 0H6l51-261h31" id="bL"/><path d="M222 0l43-216c-8 16-17 34-26 49L143 0h-22L81-216 41 0H11l48-248h42l38 208 116-208h45L252 0h-30" id="bM"/><path d="M67-162c32-53 139-36 121 50C175-51 163 2 97 4 68 4 52-11 42-31 38 6 28 39 22 75H-9l50-265h29c-1 10 0 20-3 28zm89 36c0-26-10-43-35-43-54 0-67 50-69 103-1 29 14 45 42 46 53 0 62-58 62-106" id="bN"/><path d="M119 0H84L31-248h34l41 218 126-218h36" id="bO"/><path d="M111-194c62-3 86 47 72 106H45c-7 38 6 69 45 68 27-1 43-14 53-32l24 11C152-15 129 4 87 4 38 3 12-23 12-71c0-70 32-119 99-123zm44 81c14-66-71-72-95-28-4 8-8 17-11 28h106" id="bP"/><path d="M50-231l6-30h32l-6 30H50zM6 0l37-190h31L37 0H6" id="bQ"/><path d="M44-68c0 29 11 47 38 47 30 0 42-19 51-41l28 9C148-21 126 4 82 4 31 4 10-29 12-85c3-77 74-140 146-93 12 8 15 23 18 40l-31 5c-1-22-13-36-36-36-52 0-65 49-65 101" id="bR"/><path d="M6 0l50-261h32L37 0H6" id="bS"/><g id="ah"><use transform="matrix(0.04938271604938272,0,0,0.04938271604938272,0,0)" xlink:href="#aU"/><use transform="matrix(0.04938271604938272,0,0,0.04938271604938272,8.88888888888889,0)" xlink:href="#bb"/><use transform="matrix(0.04938271604938272,0,0,0.04938271604938272,12.790123456790125,0)" xlink:href="#aY"/><use transform="matrix(0.04938271604938272,0,0,0.04938271604938272,22.666666666666668,0)" xlink:href="#bc"/><use transform="matrix(0.04938271604938272,0,0,0.04938271604938272,31.555555555555557,0)" xlink:href="#aN"/><use transform="matrix(0.04938271604938272,0,0,0.04938271604938272,41.4320987654321,0)" xlink:href="#bs"/><use transform="matrix(0.04938271604938272,0,0,0.04938271604938272,55.25925925925927,0)" xlink:href="#aG"/><use transform="matrix(0.04938271604938272,0,0,0.04938271604938272,65.13580246913581,0)" xlink:href="#aH"/><use transform="matrix(0.04938271604938272,0,0,0.04938271604938272,71.01234567901236,0)" xlink:href="#aG"/><use transform="matrix(0.04938271604938272,0,0,0.04938271604938272,80.8888888888889,0)" xlink:href="#aL"/><use transform="matrix(0.04938271604938272,0,0,0.04938271604938272,90.76543209876544,0)" xlink:href="#aN"/><use transform="matrix(0.04938271604938272,0,0,0.04938271604938272,100.64197530864199,0)" xlink:href="#bm"/><use transform="matrix(0.04938271604938272,0,0,0.04938271604938272,106.51851851851853,0)" xlink:href="#bI"/><use transform="matrix(0.04938271604938272,0,0,0.04938271604938272,119.30864197530865,0)" xlink:href="#bJ"/><use transform="matrix(0.04938271604938272,0,0,0.04938271604938272,129.18518518518522,0)" xlink:href="#bK"/><use transform="matrix(0.04938271604938272,0,0,0.04938271604938272,138.0740740740741,0)" xlink:href="#bL"/><use transform="matrix(0.04938271604938272,0,0,0.04938271604938272,147.95061728395063,0)" xlink:href="#bM"/><use transform="matrix(0.04938271604938272,0,0,0.04938271604938272,162.71604938271608,0)" xlink:href="#bJ"/><use transform="matrix(0.04938271604938272,0,0,0.04938271604938272,172.5925925925926,0)" xlink:href="#bN"/><use transform="matrix(0.04938271604938272,0,0,0.04938271604938272,182.46913580246917,0)" xlink:href="#bB"/><use transform="matrix(0.04938271604938272,0,0,0.04938271604938272,192.83950617283955,0)" xlink:href="#bO"/><use transform="matrix(0.04938271604938272,0,0,0.04938271604938272,204.0493827160494,0)" xlink:href="#bP"/><use transform="matrix(0.04938271604938272,0,0,0.04938271604938272,213.92592592592598,0)" xlink:href="#bL"/><use transform="matrix(0.04938271604938272,0,0,0.04938271604938272,223.80246913580254,0)" xlink:href="#bQ"/><use transform="matrix(0.04938271604938272,0,0,0.04938271604938272,227.70370370370378,0)" xlink:href="#bR"/><use transform="matrix(0.04938271604938272,0,0,0.04938271604938272,236.59259259259267,0)" xlink:href="#bS"/><use transform="matrix(0.04938271604938272,0,0,0.04938271604938272,240.49382716049388,0)" xlink:href="#bP"/><use transform="matrix(0.04938271604938272,0,0,0.04938271604938272,250.37037037037044,0)" xlink:href="#by"/></g><path d="M151-220L108 0H75l42-220H32l6-28h203l-5 28h-85" id="bT"/><path d="M127 0L80-88 50-66 37 0H6l51-261h31L57-100l99-90h39l-93 82L161 0h-34" id="bU"/><path d="M51-54c-9 22 5 41 31 30L79-1C43 14 10-4 19-52l22-115H19l5-23h22l19-43h21l-9 43h35l-4 23H73" id="bV"/><path d="M198-190L69 30C53 58 25 83-20 72c4-11-1-27 19-22 33-1 43-29 59-52L20-190h32L79-34l84-156h35" id="bW"/><g id="ai"><use transform="matrix(0.04938271604938272,0,0,0.04938271604938272,0,0)" xlink:href="#bT"/><use transform="matrix(0.04938271604938272,0,0,0.04938271604938272,10.666666666666666,0)" xlink:href="#bQ"/><use transform="matrix(0.04938271604938272,0,0,0.04938271604938272,14.567901234567902,0)" xlink:href="#bR"/><use transform="matrix(0.04938271604938272,0,0,0.04938271604938272,23.45679012345679,0)" xlink:href="#bU"/><use transform="matrix(0.04938271604938272,0,0,0.04938271604938272,32.345679012345684,0)" xlink:href="#bP"/><use transform="matrix(0.04938271604938272,0,0,0.04938271604938272,42.22222222222223,0)" xlink:href="#bV"/><use transform="matrix(0.04938271604938272,0,0,0.04938271604938272,47.1604938271605,0)" xlink:href="#bT"/><use transform="matrix(0.04938271604938272,0,0,0.04938271604938272,56.64197530864198,0)" xlink:href="#bW"/><use transform="matrix(0.04938271604938272,0,0,0.04938271604938272,65.53086419753087,0)" xlink:href="#bN"/><use transform="matrix(0.04938271604938272,0,0,0.04938271604938272,75.40740740740742,0)" xlink:href="#bP"/><use transform="matrix(0.04938271604938272,0,0,0.04938271604938272,85.28395061728396,0)" xlink:href="#bD"/></g><path d="M11 0l48-248h34L50-27h125l-5 27H11" id="bX"/><g id="aj"><use transform="matrix(0.04938271604938272,0,0,0.04938271604938272,0,0)" xlink:href="#bV"/><use transform="matrix(0.04938271604938272,0,0,0.04938271604938272,4.938271604938272,0)" xlink:href="#bQ"/><use transform="matrix(0.04938271604938272,0,0,0.04938271604938272,8.839506172839506,0)" xlink:href="#bR"/><use transform="matrix(0.04938271604938272,0,0,0.04938271604938272,17.728395061728396,0)" xlink:href="#bU"/><use transform="matrix(0.04938271604938272,0,0,0.04938271604938272,26.617283950617285,0)" xlink:href="#bP"/><use transform="matrix(0.04938271604938272,0,0,0.04938271604938272,36.49382716049383,0)" xlink:href="#bV"/><use transform="matrix(0.04938271604938272,0,0,0.04938271604938272,41.4320987654321,0)" xlink:href="#bX"/><use transform="matrix(0.04938271604938272,0,0,0.04938271604938272,51.308641975308646,0)" xlink:href="#bQ"/><use transform="matrix(0.04938271604938272,0,0,0.04938271604938272,55.20987654320988,0)" xlink:href="#bK"/><use transform="matrix(0.04938271604938272,0,0,0.04938271604938272,64.09876543209877,0)" xlink:href="#bV"/><use transform="matrix(0.04938271604938272,0,0,0.04938271604938272,69.03703703703704,0)" xlink:href="#bn"/><use transform="matrix(0.04938271604938272,0,0,0.04938271604938272,74.91358024691358,0)" xlink:href="#aO"/></g><g id="ak"><use transform="matrix(0.04938271604938272,0,0,0.04938271604938272,0,0)" xlink:href="#aX"/><use transform="matrix(0.04938271604938272,0,0,0.04938271604938272,8.88888888888889,0)" xlink:href="#aY"/><use transform="matrix(0.04938271604938272,0,0,0.04938271604938272,18.765432098765434,0)" xlink:href="#aJ"/><use transform="matrix(0.04938271604938272,0,0,0.04938271604938272,22.666666666666668,0)" xlink:href="#aZ"/></g><path d="M232-93c-1 65-40 97-104 97C67 4 28-28 28-90v-158h33c8 89-33 224 67 224 102 0 64-133 71-224h33v155" id="bY"/><g id="al"><use transform="matrix(0.05,0,0,0.05,0,0)" xlink:href="#bY"/><use transform="matrix(0.05,0,0,0.05,12.950000000000001,0)" xlink:href="#bc"/><use transform="matrix(0.05,0,0,0.05,21.950000000000003,0)" xlink:href="#aN"/><use transform="matrix(0.05,0,0,0.05,31.950000000000003,0)" xlink:href="#bc"/></g><path d="M24 0v-248h195v40H76v63h132v40H76v65h150V0H24" id="bZ"/><path d="M85 4C-2 5 27-109 22-190h50c7 57-23 150 33 157 60-5 35-97 40-157h50l1 190h-47c-2-12 1-28-3-38-12 25-28 42-61 42" id="ca"/><path d="M220-157c-53 9-28 100-34 157h-49v-107c1-27-5-49-29-50C55-147 81-57 75 0H25l-1-190h47c2 12-1 28 3 38 10-53 101-56 108 0 13-22 24-43 59-42 82 1 51 116 57 194h-49v-107c-1-25-5-48-29-50" id="cb"/><path d="M110-194c64 0 96 36 96 99 0 64-35 99-97 99-61 0-95-36-95-99 0-62 34-99 96-99zm-1 164c35 0 45-28 45-65 0-40-10-65-43-65-34 0-45 26-45 65 0 36 10 65 43 65" id="cc"/><g id="am"><use transform="matrix(0.05,0,0,0.05,0,0)" xlink:href="#aq"/><use transform="matrix(0.05,0,0,0.05,10.5,0)" xlink:href="#aq"/><use transform="matrix(0.05,0,0,0.05,21,0)" xlink:href="#bZ"/><use transform="matrix(0.05,0,0,0.05,33,0)" xlink:href="#as"/><use transform="matrix(0.05,0,0,0.05,43.95,0)" xlink:href="#ca"/><use transform="matrix(0.05,0,0,0.05,54.900000000000006,0)" xlink:href="#cb"/><use transform="matrix(0.05,0,0,0.05,70.9,0)" xlink:href="#au"/><use transform="matrix(0.05,0,0,0.05,80.9,0)" xlink:href="#av"/><use transform="matrix(0.05,0,0,0.05,87.9,0)" xlink:href="#ax"/><use transform="matrix(0.05,0,0,0.05,97.9,0)" xlink:href="#at"/><use transform="matrix(0.05,0,0,0.05,103.85000000000001,0)" xlink:href="#bq"/><use transform="matrix(0.05,0,0,0.05,108.85000000000001,0)" xlink:href="#cc"/><use transform="matrix(0.05,0,0,0.05,119.80000000000001,0)" xlink:href="#as"/><use transform="matrix(0.05,0,0,0.05,130.75,0)" xlink:href="#az"/><use transform="matrix(0.05,0,0,0.05,141.25,0)" xlink:href="#az"/></g><path d="M136-208V0H84v-208H4v-40h212v40h-80" id="cd"/><path d="M123 10C108 53 80 86 19 72V37c35 8 53-11 59-39L3-190h52l48 148c12-52 28-100 44-148h51" id="ce"/><path d="M135-194c53 0 70 44 70 98 0 56-19 98-73 100-31 1-45-17-59-34 3 33 2 69 2 105H25l-1-265h48c2 10 0 23 3 31 11-24 29-35 60-35zM114-30c33 0 39-31 40-66 0-38-9-64-40-64-56 0-55 130 0 130" id="cf"/><g id="an"><use transform="matrix(0.05,0,0,0.05,0,0)" xlink:href="#cd"/><use transform="matrix(0.05,0,0,0.05,10.600000000000001,0)" xlink:href="#bq"/><use transform="matrix(0.05,0,0,0.05,15.600000000000001,0)" xlink:href="#ay"/><use transform="matrix(0.05,0,0,0.05,25.6,0)" xlink:href="#aB"/><use transform="matrix(0.05,0,0,0.05,35.6,0)" xlink:href="#au"/><use transform="matrix(0.05,0,0,0.05,45.6,0)" xlink:href="#at"/><use transform="matrix(0.05,0,0,0.05,51.550000000000004,0)" xlink:href="#cd"/><use transform="matrix(0.05,0,0,0.05,61.150000000000006,0)" xlink:href="#ce"/><use transform="matrix(0.05,0,0,0.05,71.15,0)" xlink:href="#cf"/><use transform="matrix(0.05,0,0,0.05,82.10000000000001,0)" xlink:href="#au"/></g><path d="M30 0v-248h187v28H63v79h144v27H63v87h162V0H30" id="cg"/><path d="M194 0L95-120 63-95V0H30v-248h33v124l119-124h40L117-140 236 0h-42" id="ch"/><path d="M-5 72V49h209v23H-5" id="ci"/><g id="ao"><use transform="matrix(0.05,0,0,0.05,0,0)" xlink:href="#bl"/><use transform="matrix(0.05,0,0,0.05,12.950000000000001,0)" xlink:href="#bz"/><use transform="matrix(0.05,0,0,0.05,25.900000000000002,0)" xlink:href="#cg"/><use transform="matrix(0.05,0,0,0.05,37.900000000000006,0)" xlink:href="#bl"/><use transform="matrix(0.05,0,0,0.05,50.85000000000001,0)" xlink:href="#ch"/><use transform="matrix(0.05,0,0,0.05,62.85,0)" xlink:href="#cg"/><use transform="matrix(0.05,0,0,0.05,74.85000000000001,0)" xlink:href="#bg"/><use transform="matrix(0.05,0,0,0.05,87.80000000000001,0)" xlink:href="#ci"/><use transform="matrix(0.05,0,0,0.05,97.80000000000001,0)" xlink:href="#ba"/><use transform="matrix(0.05,0,0,0.05,111.80000000000001,0)" xlink:href="#bY"/><use transform="matrix(0.05,0,0,0.05,124.75,0)" xlink:href="#bd"/></g><g id="ap"><use transform="matrix(0.05,0,0,0.05,0,0)" xlink:href="#bj"/><use transform="matrix(0.05,0,0,0.05,10,0)" xlink:href="#ba"/><use transform="matrix(0.05,0,0,0.05,24,0)" xlink:href="#bv"/><use transform="matrix(0.05,0,0,0.05,36,0)" xlink:href="#bd"/><use transform="matrix(0.05,0,0,0.05,46.95,0)" xlink:href="#ci"/><use transform="matrix(0.05,0,0,0.05,56.95,0)" xlink:href="#bd"/><use transform="matrix(0.05,0,0,0.05,67.9,0)" xlink:href="#aW"/><use transform="matrix(0.05,0,0,0.05,72.9,0)" xlink:href="#bl"/><use transform="matrix(0.05,0,0,0.05,85.85000000000001,0)" xlink:href="#ch"/><use transform="matrix(0.05,0,0,0.05,97.85000000000001,0)" xlink:href="#cg"/><use transform="matrix(0.05,0,0,0.05,109.85000000000001,0)" xlink:href="#bd"/></g></defs></g></svg>